<?xml version="1.0" encoding="UTF-8"?>
<svg width="20px" height="20px" viewBox="0 0 20 20" version="1.1" xmlns="http://www.w3.org/2000/svg" xmlns:xlink="http://www.w3.org/1999/xlink">
    <title>vuesax/linear/programming-arrow</title>
    <g id="Nurse-Man" stroke="none" stroke-width="1" fill="none" fill-rule="evenodd">
        <g id="Nurse-Man-List" transform="translate(-21.000000, -399.000000)">
            <g id="Group-3" transform="translate(-40.000000, 34.000000)">
                <g id="Group-10-Copy-4" transform="translate(50.000000, 345.000000)">
                    <g id="programming-arrow" transform="translate(11.000000, 20.000000)">
                        <path d="M15.8333333,13.3333333 L15.8333333,5.41666667 C15.8333333,4.49999998 15.0833334,3.75 14.1666667,3.75 L10.4166667,3.75" id="Vector" stroke="#9A9A9A" stroke-width="1.5" stroke-linecap="round" stroke-linejoin="round" stroke-dasharray="0,0" fill-rule="nonzero"></path>
                        <path d="M12.5,1.66666667 L10,3.75 L12.5,5.83333333" id="Vector" stroke="#9A9A9A" stroke-width="1.5" stroke-linecap="round" stroke-linejoin="round" stroke-dasharray="0,0" fill-rule="nonzero"></path>
                        <line x1="4.16666667" y1="7.5" x2="4.16666667" y2="13.3333333" id="Vector" stroke="#9A9A9A" stroke-width="1.5" stroke-linecap="round" stroke-linejoin="round" stroke-dasharray="0,0"></line>
                        <path d="M4.375,7.08333333 C2.87922879,7.08333333 1.66666667,5.87077121 1.66666667,4.375 C1.66666667,2.87922879 2.87922879,1.66666667 4.375,1.66666667 C5.87077121,1.66666667 7.08333333,2.87922879 7.08333333,4.375 C7.08333333,5.87077121 5.87077121,7.08333333 4.375,7.08333333 Z" id="Vector" stroke="#9A9A9A" stroke-width="1.5" stroke-linecap="round" stroke-linejoin="round" stroke-dasharray="0,0"></path>
                        <path d="M4.16666667,18.3333333 C2.78595477,18.3333333 1.66666667,17.2140452 1.66666667,15.8333333 C1.66666667,14.4526214 2.78595477,13.3333333 4.16666667,13.3333333 C5.54737856,13.3333333 6.66666667,14.4526214 6.66666667,15.8333333 C6.66666667,17.2140452 5.54737856,18.3333333 4.16666667,18.3333333 Z" id="Vector" stroke="#9A9A9A" stroke-width="1.5" stroke-linecap="round" stroke-linejoin="round" stroke-dasharray="0,0"></path>
                        <path d="M15.8333333,18.3333333 C14.4526214,18.3333333 13.3333333,17.2140452 13.3333333,15.8333333 C13.3333333,14.4526214 14.4526214,13.3333333 15.8333333,13.3333333 C17.2140452,13.3333333 18.3333333,14.4526214 18.3333333,15.8333333 C18.3333333,17.2140452 17.2140452,18.3333333 15.8333333,18.3333333 Z" id="Vector" stroke="#9A9A9A" stroke-width="1.5" stroke-linecap="round" stroke-linejoin="round" stroke-dasharray="0,0"></path>
                        <path d="M20,0 L20,20 L0,20 L0,0 L20,0 Z" id="Vector" opacity="0"></path>
                    </g>
                </g>
            </g>
        </g>
    </g>
</svg>