<?xml version="1.0" encoding="UTF-8"?>
<svg width="18px" height="18px" viewBox="0 0 18 18" version="1.1" xmlns="http://www.w3.org/2000/svg" xmlns:xlink="http://www.w3.org/1999/xlink">
    <title>vuesax/linear/programming-arrow</title>
    <g id="Carer" stroke="none" stroke-width="1" fill="none" fill-rule="evenodd">
        <g id="Carer-list" transform="translate(-22.000000, -402.000000)">
            <g id="Group-3" transform="translate(-40.000000, 34.000000)">
                <g id="Group-10-Copy-10" transform="translate(50.000000, 347.000000)">
                    <g id="programming-arrow" transform="translate(11.000000, 20.000000)">
                        <path d="M20,0 L20,20 L0,20 L0,0 L20,0 Z" id="Vector" opacity="0"></path>
                        <path d="M4.79166667,6.57499989 C5.86666663,6.29999988 6.66666667,5.33333331 6.66666667,4.16666667 C6.66666667,2.78333336 5.54999997,1.66666667 4.16666667,1.66666667 C2.78333336,1.66666667 1.66666667,2.78333336 1.66666667,4.16666667 C1.66666667,5.33333331 2.4666667,6.29999988 3.54166667,6.57499989 L3.54166667,13.416667 C2.4666667,13.7000003 1.66666667,14.6666667 1.66666667,15.8333333 C1.66666667,17.2166666 2.78333336,18.3333333 4.16666667,18.3333333 C5.54999997,18.3333333 6.66666667,17.2166666 6.66666667,15.8333333 C6.66666667,14.6666667 5.86666663,13.7000005 4.79166667,13.4250005 L4.79166667,6.57499989 Z" id="Vector" fill="#00609D" fill-rule="nonzero"></path>
                        <path d="M16.4583333,5.4172198 C16.4583333,4.15055315 15.4333333,3.12555313 14.1666667,3.12555313 L11.7249997,3.12555313 L12.8999996,2.15055307 C13.1666663,1.92555306 13.1999999,1.53388644 12.9833333,1.26721978 C12.7583333,1.00055312 12.366667,0.967219758 12.1000004,1.18388642 L9.60000038,3.26721986 C9.45833371,3.38388653 9.375,3.55888646 9.375,3.75055313 C9.375,3.9422198 9.45833371,4.1088864 9.60000038,4.2338864 L12.1000004,6.31721973 C12.216667,6.41721973 12.3583333,6.45888646 12.5,6.45888646 C12.675,6.45888646 12.8583333,6.38388649 12.9833333,6.23388648 C13.2083333,5.96721982 13.1666663,5.5755532 12.8999996,5.35055319 L11.7249997,4.37555313 L14.1666667,4.37555313 C14.7416667,4.37555313 15.2083333,4.8422198 15.2083333,5.4172198 L15.2083333,13.4255536 C14.1333334,13.7005537 13.3333333,14.6672198 13.3333333,15.8338865 C13.3333333,17.2172198 14.45,18.3338865 15.8333333,18.3338865 C17.2166666,18.3338865 18.3333333,17.2172198 18.3333333,15.8338865 C18.3333333,14.6672198 17.5333333,13.7005537 16.4583333,13.4255536 L16.4583333,5.4172198 Z" id="Vector" fill="#00609D" fill-rule="nonzero"></path>
                    </g>
                </g>
            </g>
        </g>
    </g>
</svg>