<?xml version="1.0" encoding="UTF-8"?>
<svg width="18px" height="20px" viewBox="0 0 18 20" version="1.1" xmlns="http://www.w3.org/2000/svg" xmlns:xlink="http://www.w3.org/1999/xlink">
    <title>vuesax/bold/timer-pause</title>
    <g id="Regular" stroke="none" stroke-width="1" fill="none" fill-rule="evenodd">
        <g id="Report-Alert---Details---Case-Detail" transform="translate(-22.000000, -204.000000)">
            <g id="Group-3" transform="translate(-40.000000, 34.000000)">
                <g id="Group-10-Copy" transform="translate(50.000000, 150.000000)">
                    <g id="vuesax/bold/timer-pause" transform="translate(11.000000, 20.000000)">
                        <path d="M20,0 L20,20 L1.77635684e-15,20 L1.77635684e-15,0 L20,0 Z" id="Vector" opacity="0" transform="translate(10.000000, 10.000000) rotate(-180.000000) translate(-10.000000, -10.000000) "></path>
                        <g transform="translate(1.500000, 0.833333)" fill="#00609D" id="timer-pause">
                            <path d="M5.28930962,1.3267776 C4.92330201,1.3267776 4.63049657,1.0339715 4.63049657,0.667963891 C4.63049657,0.301956284 4.92330201,0 5.28930962,0 L10.5781201,0 C10.9441277,0 11.2369332,0.292806102 11.2369332,0.65881371 C11.2369332,1.02482132 10.9441277,1.3267776 10.5781201,1.3267776 L5.28930962,1.3267776 Z" id="Vector" fill-rule="nonzero"></path>
                            <path d="M9.76325285,13.7513069 C9.76325285,12.0951226 10.8795767,10.9787987 12.5357611,10.9787987 L15.2259157,10.9787987 C15.4363701,10.9787987 15.6376741,10.9970986 15.8298281,11.0336993 C15.8481285,10.8140948 15.8664297,10.5944906 15.8664297,10.3657359 C15.8664297,5.98279489 12.3070059,2.42337065 7.93321484,2.42337065 C3.55942381,2.42337065 0,5.98279489 0,10.3657359 C0,14.7395269 3.55942381,18.2989507 7.93321484,18.2989507 C8.71098102,18.2989507 9.45214603,18.1708475 10.1658608,17.9695433 C9.90965551,17.5394844 9.76325285,17.0270737 9.76325285,16.4414615 L9.76325285,13.7513069 Z M7.93321484,10.7500439 C7.55805705,10.7500439 7.24695059,10.4389375 7.24695059,10.0637797 L7.24695059,5.48868422 C7.24695059,5.11352644 7.55805705,4.80241997 7.93321484,4.80241997 C8.30837263,4.80241997 8.61947909,5.11352644 8.61947909,5.48868422 L8.61947909,10.0637797 C8.61947909,10.4389375 8.30837263,10.7500439 7.93321484,10.7500439 Z" id="Vector"></path>
                            <path d="M12.5448399,11.8952471 C11.3736156,11.8952471 10.6782003,12.5906622 10.6782003,13.7527363 L10.6782003,16.4428909 C10.6782003,17.604965 11.3736156,18.3003801 12.5448399,18.3003801 L15.2258441,18.3003801 C16.3879182,18.3003801 17.0833333,17.604965 17.0833333,16.4428909 L17.0833333,13.7527363 C17.0833333,12.5906622 16.3879182,11.8952471 15.2258441,11.8952471 L12.5448399,11.8952471 Z M12.8101945,17.0559537 C12.5173884,17.0559537 12.2794836,16.8180488 12.2794836,16.5252427 L12.2794836,13.6703844 C12.2794836,13.3775783 12.5173884,13.1396735 12.8101945,13.1396735 C13.1121508,13.1396735 13.3500559,13.3775783 13.3500559,13.6703844 L13.3500559,16.5252427 C13.3500559,16.8180488 13.1121508,17.0559537 12.8101945,17.0559537 Z M14.9513391,17.0559537 C14.658533,17.0559537 14.4114778,16.8180488 14.4114778,16.5252427 L14.4114778,13.6703844 C14.4114778,13.3775783 14.658533,13.1396735 14.9513391,13.1396735 C15.2441452,13.1396735 15.4820501,13.3775783 15.4820501,13.6703844 L15.4820501,16.5252427 C15.4820501,16.8180488 15.2441452,17.0559537 14.9513391,17.0559537 Z" id="Vector"></path>
                        </g>
                    </g>
                </g>
            </g>
        </g>
    </g>
</svg>