<?xml version="1.0" encoding="UTF-8"?>
<svg width="18px" height="20px" viewBox="0 0 18 20" version="1.1" xmlns="http://www.w3.org/2000/svg" xmlns:xlink="http://www.w3.org/1999/xlink">
    <title>vuesax/bold/element-4</title>
    <g id="Kainan" stroke="none" stroke-width="1" fill="none" fill-rule="evenodd">
        <g id="Dashboard" transform="translate(-22.000000, -149.000000)">
            <g id="Group-3" transform="translate(-40.000000, 34.000000)">
                <g id="Group-10" transform="translate(50.000000, 105.000000)">
                    <g id="element-4" transform="translate(11.000000, 10.000000)">
                        <path d="M20,0 L20,20 L0,20 L0,0 L20,0 Z" id="Vector" opacity="0" transform="translate(10.000000, 10.000000) rotate(-180.000000) translate(-10.000000, -10.000000) "></path>
                        <g id="Group" transform="translate(1.250000, 0.833333)" fill="#00609D" fill-rule="nonzero">
                            <path d="M17.5,1.93421044 C17.5,0.552631491 16.9105268,0 15.4460531,0 L11.7249996,0 C10.2605259,0 9.67105263,0.552631491 9.67105263,1.93421044 L9.67105263,8.19736807 C9.67105263,9.57894702 10.2605259,10.1315789 11.7249996,10.1315789 L15.4460531,10.1315789 C16.9105268,10.1315789 17.5,9.57894702 17.5,8.19736807 L17.5,1.93421044 Z" id="Vector"></path>
                            <path d="M7.82894737,16.4868418 C7.82894737,17.8684207 7.23947414,18.4210526 5.77500042,18.4210526 L2.05394739,18.4210526 C0.589473671,18.4210526 0,17.8684207 0,16.4868418 L0,10.2236846 C0,8.84210561 0.589473671,8.28947368 2.05394739,8.28947368 L5.77500042,8.28947368 C7.23947414,8.28947368 7.82894737,8.84210561 7.82894737,10.2236846 L7.82894737,16.4868418 Z" id="Vector"></path>
                            <path d="M17.5,13.9078951 C17.5,12.5263161 16.9105268,11.9736842 15.4460531,11.9736842 L11.7249996,11.9736842 C10.2605259,11.9736842 9.67105263,12.5263161 9.67105263,13.9078951 L9.67105263,16.4868418 C9.67105263,17.8684207 10.2605259,18.4210526 11.7249996,18.4210526 L15.4460531,18.4210526 C16.9105268,18.4210526 17.5,17.8684207 17.5,16.4868418 L17.5,13.9078951 Z" id="Vector"></path>
                            <path d="M7.82894737,1.93421044 C7.82894737,0.552631491 7.23947414,0 5.77500042,0 L2.05394739,0 C0.589473671,0 0,0.552631491 0,1.93421044 L0,4.51315798 C0,5.89473693 0.589473671,6.44736842 2.05394739,6.44736842 L5.77500042,6.44736842 C7.23947414,6.44736842 7.82894737,5.89473693 7.82894737,4.51315798 L7.82894737,1.93421044 Z" id="Vector"></path>
                        </g>
                    </g>
                </g>
            </g>
        </g>
    </g>
</svg>