<?xml version="1.0" encoding="UTF-8"?>
<svg width="20px" height="20px" viewBox="0 0 20 20" version="1.1" xmlns="http://www.w3.org/2000/svg" xmlns:xlink="http://www.w3.org/1999/xlink">
    <title>vuesax/linear/element-4</title>
    <g id="Kainan" stroke="none" stroke-width="1" fill="none" fill-rule="evenodd">
        <g id="Group-10" transform="translate(-11.000000, -10.000000)">
            <g id="element-4" transform="translate(11.000000, 10.000000)">
                <path d="M18.3333333,3.41666659 C18.3333333,2.16666667 17.8000004,1.66666667 16.4750004,1.66666667 L13.108333,1.66666667 C11.7833329,1.66666667 11.25,2.16666667 11.25,3.41666659 L11.25,9.08333302 C11.25,10.333333 11.7833329,10.8333333 13.108333,10.8333333 L16.4750004,10.8333333 C17.8000004,10.8333333 18.3333333,10.333333 18.3333333,9.08333302 L18.3333333,3.41666659 Z" id="Vector" stroke="#9A9A9A" stroke-width="1.5" stroke-linecap="round" stroke-linejoin="round" stroke-dasharray="0,0" fill-rule="nonzero"></path>
                <path d="M18.3333333,15.0833337 C18.3333333,13.8333333 17.8000004,13.3333333 16.4750004,13.3333333 L13.108333,13.3333333 C11.7833329,13.3333333 11.25,13.8333333 11.25,15.0833337 L11.25,16.583333 C11.25,17.8333333 11.7833329,18.3333333 13.108333,18.3333333 L16.4750004,18.3333333 C17.8000004,18.3333333 18.3333333,17.8333333 18.3333333,16.583333 L18.3333333,15.0833337 Z" id="Vector" stroke="#9A9A9A" stroke-width="1.5" stroke-linecap="round" stroke-linejoin="round" stroke-dasharray="0,0" fill-rule="nonzero"></path>
                <path d="M8.75,16.583333 C8.75,17.833333 8.21666708,18.3333333 6.89166705,18.3333333 L3.52500002,18.3333333 C2.19999999,18.3333333 1.66666667,17.833333 1.66666667,16.583333 L1.66666667,10.916667 C1.66666667,9.66666667 2.19999999,9.16666667 3.52500002,9.16666667 L6.89166705,9.16666667 C8.21666708,9.16666667 8.75,9.66666667 8.75,10.916667 L8.75,16.583333 Z" id="Vector" stroke="#9A9A9A" stroke-width="1.5" stroke-linecap="round" stroke-linejoin="round" stroke-dasharray="0,0" fill-rule="nonzero"></path>
                <path d="M8.75,4.91666675 C8.75,6.16666667 8.21666708,6.66666667 6.89166705,6.66666667 L3.52500002,6.66666667 C2.19999999,6.66666667 1.66666667,6.16666667 1.66666667,4.91666675 L1.66666667,3.41666659 C1.66666667,2.16666667 2.19999999,1.66666667 3.52500002,1.66666667 L6.89166705,1.66666667 C8.21666708,1.66666667 8.75,2.16666667 8.75,3.41666659 L8.75,4.91666675 Z" id="Vector" stroke="#9A9A9A" stroke-width="1.5" stroke-linecap="round" stroke-linejoin="round" stroke-dasharray="0,0" fill-rule="nonzero"></path>
                <path d="M20,0 L20,20 L0,20 L0,0 L20,0 Z" id="Vector" opacity="0"></path>
            </g>
        </g>
    </g>
</svg>