<?xml version="1.0" encoding="UTF-8"?><svg version="1.1" width="48px" height="52px" viewBox="0 0 48.0 52.0" xmlns="http://www.w3.org/2000/svg" xmlns:xlink="http://www.w3.org/1999/xlink"><defs><clipPath id="i0"><path d="M1024,0 L1024,768 L0,768 L0,0 L1024,0 Z"></path></clipPath><clipPath id="i1"><path d="M2.08282868,-1.52153822e-17 C2.48691094,-5.90133252e-17 2.85303044,0.0967313217 3.16159765,0.270604447 C3.47016487,0.444477571 3.72117979,0.695492499 3.89505292,1.00405971 C4.06892604,1.31262692 4.16565737,1.67874642 4.16565737,2.08282868 L4.16565737,13.5383864 C4.16565737,13.9424687 4.06892604,14.3085882 3.89505292,14.6171554 C3.72117979,14.9257226 3.47016487,15.1767375 3.16159765,15.3506107 C2.85303044,15.5244838 2.48691094,15.6212151 2.08282868,15.6212151 C1.67874642,15.6212151 1.31262692,15.5244838 1.00405971,15.3506107 C0.695492499,15.1767375 0.444477571,14.9257226 0.270604447,14.6171554 C0.0967313217,14.3085882 3.93422168e-17,13.9424687 -1.01435881e-17,13.5383864 L1.01435881e-17,2.08282868 C-3.93422168e-17,1.67874642 0.0967313217,1.31262692 0.270604447,1.00405971 C0.444477571,0.695492499 0.695492499,0.444477571 1.00405971,0.270604447 C1.31262692,0.0967313217 1.67874642,5.90133252e-17 2.08282868,-1.52153822e-17 Z"></path></clipPath><clipPath id="i2"><path d="M4.59259812,1.99181898 L7.63739899,11.9509139 C7.9737184,13.0509651 7.35459143,14.2153736 6.25454018,14.551693 C5.15448894,14.8880124 3.99008045,14.2688854 3.65376104,13.1688342 L0.608960173,3.20973932 C0.272640756,2.10968808 0.891767731,0.945279589 1.99181898,0.608960173 C3.09187022,0.272640756 4.25627871,0.891767731 4.59259812,1.99181898 Z"></path></clipPath><clipPath id="i3"><path d="M3.65376104,1.99181898 C3.99008045,0.891767731 5.15448894,0.272640756 6.25454018,0.608960173 C7.35459143,0.945279589 7.9737184,2.10968808 7.63739899,3.20973932 L4.59259812,13.1688342 C4.25627871,14.2688854 3.09187022,14.8880124 1.99181898,14.551693 C0.891767731,14.2153736 0.272640756,13.0509651 0.608960173,11.9509139 Z"></path></clipPath><clipPath id="i4"><path d="M37.8724935,0 C38.3027914,0.0188527917 38.6528027,0.112138101 38.9225276,0.279855927 C39.1922525,0.447573753 39.4186682,0.724891758 39.6017748,1.11180994 L45.9554888,14.2698683 L46.8333333,15.8889081 L46.8333333,29.2667746 C46.699842,30.6503886 45.9846622,31.3421956 44.6877939,31.3421956 L2.14553941,31.3421956 C0.848671111,31.3421956 0.133491308,30.6503886 0,29.2667746 L0,15.8889081 L0.877844518,14.2698683 L7.23155856,1.11180994 C7.41466514,0.724891758 7.64108087,0.447573753 7.91080573,0.279855927 C8.18053059,0.112138101 8.53054196,0.0188527917 8.96083985,0 L37.8724935,0 Z M35.8109506,5.15185098 L11.0223827,5.15185098 L6.69505512,14.2698683 L19.0000071,14.2697219 C19.0000001,16.7348516 20.9693606,18.7321193 23.4157774,18.7770246 C25.8634358,18.7326638 27.8333333,16.7351877 27.8333262,14.2697219 L40.1382782,14.2698683 L35.8109506,5.15185098 Z"></path></clipPath></defs><g transform="translate(-609.0 -173.0)"><g clip-path="url(#i0)"><g transform="translate(460.0 84.0)"><g transform="translate(149.33333333333348 89.00000000000006)"><g transform="translate(21.666666666666515 0.0)"><g clip-path="url(#i1)"><polygon points="-1.01435881e-17,-1.52153822e-17 4.16565737,-1.52153822e-17 4.16565737,15.6212151 -1.01435881e-17,15.6212151 -1.01435881e-17,-1.52153822e-17" stroke="none" fill="#C1C1C1"></polygon></g></g><g transform="translate(8.936740810653873 0.7282357183455579)"><g clip-path="url(#i2)"><polygon points="0.51739807,0.51739807 7.72896109,0.51739807 7.72896109,14.6432551 0.51739807,14.6432551 0.51739807,0.51739807" stroke="none" fill="#C1C1C1"></polygon></g></g><g transform="translate(30.57108784319371 0.7282357183455579)"><g clip-path="url(#i3)"><polygon points="0.51739807,0.51739807 7.72896109,0.51739807 7.72896109,14.6432551 0.51739807,14.6432551 0.51739807,0.51739807" stroke="none" fill="#C1C1C1"></polygon></g></g><g transform="translate(0.0 20.222203060808482)"><g clip-path="url(#i4)"><polygon points="0,0 46.8333333,0 46.8333333,31.3421956 0,31.3421956 0,0" stroke="none" fill="#C1C1C1"></polygon></g></g></g></g></g></g></svg>