<?xml version="1.0" encoding="UTF-8"?><svg version="1.1" width="12px" height="16px" viewBox="0 0 12.0 16.0" xmlns="http://www.w3.org/2000/svg" xmlns:xlink="http://www.w3.org/1999/xlink"><defs><clipPath id="i0"><path d="M1024,0 L1024,768 L0,768 L0,0 L1024,0 Z"></path></clipPath><clipPath id="i1"><path d="M7,0 L7,4 C7,4.553125 7.446875,5 8.028125,5 L12,5 L12,14.5 C12,15.3284375 11.3284375,16 10.5,16 L1.5,16 C0.6715625,16 0,15.328125 0,14.5 L0,1.5 C0,0.6715625 0.6715625,0 1.5,0 L7,0 Z M8.5,12 L3.5,12 C3.225,12 3,12.225 3,12.5 C3,12.775 3.225,13 3.5,13 L8.5,13 C8.775,13 9,12.775 9,12.5 C9,12.2238125 8.776125,12 8.5,12 Z M8.5,10 L3.5,10 C3.225,10 3,10.225 3,10.5 C3,10.775 3.225,11 3.5,11 L8.5,11 C8.775,11 9,10.775 9,10.5 C9,10.2238125 8.776125,10 8.5,10 Z M8.5,8 L3.5,8 C3.225,8 3,8.225 3,8.5 C3,8.775 3.225,9 3.5,9 L8.5,9 C8.775,9 9,8.775 9,8.5 C9,8.225 8.775,8 8.5,8 Z M8,0 L12,4 L8,4 L8,0 Z"></path></clipPath></defs><g transform="translate(-864.0 -363.0)"><g clip-path="url(#i0)"><g transform="translate(802.0 201.0)"><g transform="translate(62.0 162.0)"><g clip-path="url(#i1)"><polygon points="0,0 12,0 12,16 0,16 0,0" stroke="none" fill="#78359D"></polygon></g></g></g></g></g></svg>