<?xml version="1.0" encoding="UTF-8"?>
<svg width="537px" height="280px" viewBox="0 0 537 280" version="1.1" xmlns="http://www.w3.org/2000/svg" xmlns:xlink="http://www.w3.org/1999/xlink">
    <title>Logo</title>
    <g id="Logo" stroke="none" stroke-width="1" fill="none" fill-rule="evenodd">
        <g id="Support+_logo_2021_final-01" transform="translate(16.000000, 20.000000)" fill-rule="nonzero">
            <path d="M39.5327942,118.174817 C39.2504171,118.662559 38.9552047,119.034784 38.6214863,119.278655 C38.3006033,119.522526 37.9027083,119.650879 37.4406366,119.650879 C36.9143884,119.650879 36.2982929,119.368502 35.5795148,118.816583 C34.8607367,118.264664 33.9750995,117.648569 32.9097677,116.981132 C31.8444359,116.313695 30.5480683,115.6976 29.0463355,115.145681 C27.5446027,114.593762 25.7219869,114.311385 23.578488,114.311385 C21.5633423,114.311385 19.7920678,114.593762 18.251829,115.171352 C16.7115903,115.748941 15.428058,116.51906 14.3883969,117.494545 C13.3487357,118.47003 12.565781,119.625209 12.0395328,120.947247 C11.5132846,122.269285 11.2437428,123.694006 11.2437428,125.234245 C11.2437428,127.198049 11.7058144,128.8153 12.6171223,130.111667 C13.5284302,131.408035 14.7349506,132.499037 16.2495187,133.423181 C17.7512514,134.334489 19.4583494,135.130279 21.3708125,135.797715 C23.2832756,136.465152 25.2342446,137.15826 27.236555,137.877038 C29.2388654,138.595816 31.1898344,139.404441 33.1022975,140.302914 C35.0147606,141.201386 36.7090232,142.330895 38.2235913,143.704274 C39.7253241,145.077654 40.9318444,146.759081 41.8559877,148.748556 C42.7672956,150.738031 43.2293672,153.189578 43.2293672,156.090361 C43.2293672,159.158003 42.7287896,162.04595 41.7404698,164.728533 C40.7521499,167.423951 39.3017584,169.759979 37.3892953,171.76229 C35.4768322,173.751765 33.1408035,175.317674 30.3683738,176.460018 C27.595944,177.602362 24.4384546,178.179951 20.8959055,178.179951 C16.5575664,178.179951 12.6171223,177.358491 9.07457323,175.702734 C5.53202413,174.059813 2.51572327,171.826466 -1.82400908e-14,169.015531 L2.60557053,164.510332 C2.84944166,164.150943 3.15748941,163.855731 3.51687845,163.599025 C3.87626749,163.355153 4.2741625,163.2268 4.69772815,163.2268 C5.09562315,163.2268 5.55769478,163.393659 6.07110769,163.740213 C6.5845206,164.086767 7.16211013,164.510332 7.81671159,165.036581 C8.47131305,165.562829 9.21576178,166.127583 10.0500578,166.756514 C10.8843537,167.372609 11.847003,167.950199 12.9123347,168.476447 C13.9776665,169.002695 15.1970222,169.426261 16.5704017,169.772815 C17.930946,170.119369 19.4711847,170.286228 21.1782826,170.286228 C23.3217815,170.286228 25.2214093,169.97818 26.9028366,169.362084 C28.5714286,168.745989 29.9961494,167.873187 31.1641638,166.743679 C32.3321782,165.61417 33.2178154,164.266461 33.8339109,162.700552 C34.4500064,161.134643 34.7708895,159.389039 34.7708895,157.46374 C34.7708895,155.345912 34.3088179,153.600308 33.3975099,152.252599 C32.486202,150.892055 31.2796817,149.762547 29.7907842,148.851239 C28.3018868,147.939931 26.5947889,147.156976 24.6694904,146.528045 C22.744192,145.886279 20.7932229,145.244513 18.8037479,144.564241 C16.8142729,143.896804 14.8633038,143.113849 12.9380054,142.241047 C11.012707,141.35541 9.30560904,140.213066 7.81671159,138.814016 C6.32781414,137.414966 5.1212938,135.656527 4.20998588,133.551534 C3.29867796,131.446541 2.83660634,128.84097 2.83660634,125.734822 C2.83660634,123.257605 3.29867796,120.8574 4.20998588,118.534206 C5.1212938,116.211013 6.45616737,114.157361 8.2146066,112.360416 C9.9602105,110.563471 12.1165447,109.125915 14.6836093,108.047747 C17.2378385,106.96958 20.1771275,106.430497 23.5014761,106.430497 C27.2237197,106.430497 30.6122449,107.046592 33.6670517,108.291619 C36.7218586,109.536645 39.4172763,111.33359 41.7404698,113.682454 L39.5584649,118.187652 L39.5327942,118.174817 Z" id="Path" fill="#015C93"></path>
            <path d="M143.319214,107.200616 C147.542036,107.200616 151.200103,107.714029 154.319086,108.740855 C157.43807,109.767681 160.017969,111.230907 162.071621,113.130535 C164.112437,115.030163 165.639841,117.31485 166.653831,119.984598 C167.667822,122.66718 168.168399,125.644975 168.168399,128.943653 C168.168399,132.242331 167.629316,135.194455 166.538313,137.902708 C165.447311,140.610961 163.868566,142.94699 161.763573,144.910795 C159.671416,146.874599 157.078681,148.402002 153.998203,149.493005 C150.917726,150.584007 147.349506,151.135926 143.319214,151.135926 L132.614555,151.135926 L132.614555,177.384161 L123.629829,177.384161 L123.629829,107.200616 L143.306379,107.200616 L143.319214,107.200616 Z M143.319214,143.588756 C145.899114,143.588756 148.170966,143.229367 150.134771,142.510589 C152.098575,141.791811 153.767167,140.790656 155.114876,139.494288 C156.462585,138.210756 157.476576,136.657682 158.156848,134.860737 C158.83712,133.063792 159.183673,131.087152 159.183673,128.930818 C159.183673,124.45129 157.874471,120.960082 155.256065,118.444359 C152.637659,115.928636 148.658709,114.670774 143.319214,114.670774 L132.614555,114.670774 L132.614555,143.563086 L143.319214,143.563086 L143.319214,143.588756 Z" id="Shape" fill="#015C93"></path>
            <path d="M469.554614,9.3954563 L493.582339,7.90655885 L494.057246,7.90655885 C496.303427,7.90655885 497.432935,8.70234886 497.432935,10.3067642 C497.432935,11.4876139 496.316262,13.8108073 494.095752,17.2763445 C492.285971,20.1257862 490.848415,21.5633423 489.808754,21.5633423 C489.513541,21.5633423 489.154152,21.4349891 488.717751,21.1654473 C488.28135,20.8959055 488.06315,20.5493518 488.06315,20.1129508 C488.06315,19.7535618 488.242844,19.2144782 488.602233,18.5213708 C489.885766,15.9286356 490.527532,14.2087023 490.527532,13.3359004 C490.527532,12.8096522 490.206649,12.5401104 489.577718,12.5401104 L489.321011,12.5401104 L443.588756,15.3382108 C443.537415,22.2051085 442.228212,25.644975 439.673983,25.644975 C439.340264,25.644975 438.980875,25.567963 438.621486,25.4267745 C437.530484,25.0417148 436.9914,24.2202541 436.9914,22.9623925 C436.9914,22.5003209 437.196765,21.7558722 437.607496,20.716211 C438.570145,18.2774997 439.186241,15.1071749 439.417276,11.2052368 C439.507124,9.83185727 440.187396,9.13874984 441.445257,9.13874984 C442.407907,9.13874984 443.024002,9.76768066 443.255038,11.0255423 L464.009755,9.75484533 L464.009755,2.46438198 C464.009755,0.82146066 464.933898,-3.64801815e-14 466.769349,-3.64801815e-14 C467.719163,-3.64801815e-14 468.450777,0.308047747 468.977025,0.949813888 C469.336414,1.36054422 469.516108,1.87395713 469.516108,2.4772173 L469.516108,9.44679759 L469.554614,9.3954563 Z M472.789116,44.5642408 C472.981645,47.156976 473.084328,49.2362983 473.084328,50.8022077 C473.084328,61.1089719 470.876653,66.2687717 466.448466,66.2687717 C464.150943,66.2687717 461.121807,65.3831344 457.373893,63.6246952 C455.87216,62.9187524 455.127711,62.1614684 455.127711,61.3400077 C455.127711,61.0704659 455.204723,60.8265948 455.345912,60.5827237 C455.756642,59.9537928 456.270055,59.6329098 456.873315,59.6329098 C457.207034,59.6329098 457.784623,59.761263 458.580413,60.0308048 C460.762418,60.7752535 462.62354,61.1603132 464.163779,61.1603132 C465.704017,61.1603132 466.60249,60.5698883 467.000385,59.3762033 C467.654987,57.3867283 467.97587,54.1650623 467.97587,49.6855346 C467.97587,48.7228854 467.937364,47.5420357 467.860352,46.1686561 C461.468361,51.8803748 454.306251,56.3599025 446.374021,59.5944038 C443.126685,60.9292774 441.021692,61.5967142 440.059042,61.5967142 C438.77551,61.5967142 438.133744,60.9292774 438.133744,59.5944038 C438.133744,58.9398023 438.441792,58.4392247 439.045052,58.0670004 C439.288923,57.9258118 440.187396,57.5535875 441.76614,56.937492 C449.672699,53.8955205 458.182518,48.4918496 467.282762,40.7521499 L467.282762,40.5724554 C467.064562,39.1990759 466.705173,37.8256963 466.19176,36.4651521 C462.097292,40.0462072 456.603774,43.3705558 449.672699,46.4510332 C444.782441,48.6330381 441.74047,49.7112052 440.521114,49.7112052 C439.211911,49.7112052 438.55731,49.0309331 438.55731,47.6832242 C438.55731,47.1056347 438.865357,46.6307278 439.468618,46.2713387 C439.635477,46.1558208 440.456937,45.8349377 441.933,45.3215248 C448.556026,43.0496727 454.986523,39.6098062 461.198819,35.0147606 C461.82775,34.552689 462.597869,33.9365935 463.522013,33.1664741 C463.932743,32.8327557 464.189449,32.6145553 464.279297,32.5118727 C463.599025,31.254011 463.021435,30.3041972 462.533693,29.6752663 C458.490566,32.165319 453.228084,34.6425363 446.746246,37.1197536 C444.256193,38.0695674 442.818637,38.5316391 442.433577,38.5316391 C441.227057,38.5316391 440.623797,37.8770376 440.623797,36.5678347 C440.623797,35.9132332 440.931844,35.4126556 441.573611,35.0404313 C441.76614,34.950584 442.574766,34.6553716 443.999487,34.1676293 C449.929406,32.1524836 456.051855,28.8409704 462.366834,24.2202541 L449.557181,25.1315621 L449.261969,25.170068 C447.978437,25.170068 447.336671,24.4384546 447.336671,22.9880631 C447.336671,21.7045309 447.978437,21.0114234 449.261969,20.9215762 L482.543961,18.5213708 L482.68515,18.5213708 C484.135541,18.5213708 484.867154,19.2273136 484.867154,20.6263638 C484.867154,21.9612373 484.186882,22.6671801 482.839173,22.7698627 L470.607111,23.6426646 C469.862662,24.3486074 468.322423,25.567963 465.99923,27.3135669 C467.911693,29.4699012 469.554614,32.2423309 470.940829,35.6180208 C475.997946,32.5503786 480.182262,29.5597484 483.493775,26.6589655 C484.507765,25.7604929 485.419073,25.3112566 486.214863,25.3112566 C486.946477,25.3112566 487.536902,25.6193043 487.998973,26.2225645 C488.461045,26.7744834 488.692081,27.3777436 488.692081,28.032345 C488.692081,28.9564883 488.050314,29.8677962 486.766782,30.7919394 C482.261584,33.9365935 477.486844,36.7218586 472.429727,39.1348992 C480.10525,46.4638686 488.499551,51.9188808 497.61263,55.4999358 C498.896162,56.0133487 499.537928,56.539597 499.537928,57.0915159 C499.537928,57.5535875 499.165704,57.9001412 498.40842,58.1440123 C496.136568,58.9398023 494.301117,59.3376973 492.889231,59.3376973 C492.144782,59.3376973 491.156463,58.965473 489.949942,58.2081889 C484.405083,54.7939931 478.680529,50.2374535 472.789116,44.5257348 L472.789116,44.5642408 Z" id="Shape" fill="#015C93"></path>
            <path d="M448.132461,193.710692 L448.132461,203.362855 C449.557181,202.515723 451.020408,201.59158 452.522141,200.60326 C453.151072,200.166859 453.728661,199.948659 454.267745,199.948659 C454.729816,199.948659 455.153382,200.128353 455.538442,200.487742 C455.923501,200.847131 456.116031,201.270697 456.116031,201.758439 C456.116031,202.413041 455.795148,203.003466 455.140547,203.542549 C453.831344,204.58221 451.495315,206.17379 448.132461,208.330125 L448.132461,234.283147 C448.132461,237.350789 446.848928,238.891028 444.281864,238.891028 C442.857143,238.891028 440.906174,238.339109 438.441792,237.222436 C435.438326,235.861892 433.936594,234.719548 433.936594,233.769734 C433.936594,232.704403 434.514183,232.178154 435.682197,232.178154 C436.144269,232.178154 436.734694,232.293672 437.466307,232.499037 C439.237582,233.050956 440.585291,233.333333 441.535105,233.333333 C442.574766,233.333333 443.101014,232.627391 443.101014,231.22834 L443.101014,211.372096 C438.891028,213.669619 436.298293,214.824798 435.335644,214.824798 C433.756899,214.824798 432.973944,214.003337 432.973944,212.360416 C432.973944,211.513285 433.371839,210.820177 434.167629,210.293929 C434.38583,210.12707 435.001925,209.819022 436.015916,209.382621 C438.428956,208.317289 440.790656,207.200616 443.088179,206.045437 L443.088179,194.42947 L436.157104,195.404954 C436.015916,195.430625 435.874727,195.44346 435.759209,195.44346 C434.937749,195.494802 434.308818,195.161083 433.872417,194.467976 C433.628546,194.108587 433.513028,193.646515 433.513028,193.094596 C433.513028,191.759723 434.244641,191.002439 435.720703,190.809909 L443.088179,189.757412 L443.088179,176.768066 C443.088179,176.036452 443.319214,175.458863 443.781286,175.022462 C444.269028,174.53472 444.872289,174.290848 445.591067,174.290848 C446.438198,174.290848 447.11847,174.598896 447.619048,175.202156 C447.952766,175.612887 448.132461,176.139135 448.132461,176.768066 L448.132461,189.07714 L453.253754,188.358362 C453.420614,188.332692 453.548967,188.319856 453.613143,188.319856 C454.627134,188.230009 455.320241,188.66641 455.67963,189.667565 C455.795148,189.975613 455.859325,190.309331 455.859325,190.64305 C455.859325,192.003594 455.114876,192.773713 453.651649,192.966243 L448.132461,193.723527 L448.132461,193.710692 Z M474.34219,198.138878 C474.201001,199.448081 473.841612,201.20652 473.289693,203.401361 L497.2019,201.732769 L497.561289,201.694263 C498.549609,201.642921 499.268387,202.015146 499.704788,202.823771 C499.871647,203.144654 499.961494,203.491208 499.961494,203.876267 C499.961494,205.300988 499.191375,206.083943 497.638301,206.199461 L471.98049,207.906559 C471.351559,209.93454 470.709793,211.692979 470.055192,213.169041 L488.486715,211.821332 L488.961622,211.821332 C491.592864,211.821332 492.914902,212.809652 492.914902,214.799127 C492.914902,215.9158 492.311642,217.417533 491.105121,219.304326 C489.385188,221.935567 486.869465,224.759338 483.557951,227.762803 C488.640739,231.048646 493.453985,233.679887 497.99769,235.643691 C499.332563,236.19561 500,236.747529 500,237.273777 C500,237.633166 499.640611,237.966885 498.908998,238.249262 C496.444616,239.173405 494.544988,239.622642 493.210114,239.622642 C492.285971,239.622642 491.259145,239.263252 490.129637,238.531639 C488.332692,237.363625 485.136696,235.040431 480.51598,231.562059 L479.72019,230.907457 C475.869593,233.833911 471.723784,236.221281 467.269927,238.056732 C465.357464,238.852522 464.035425,239.250417 463.316647,239.250417 C462.495187,239.250417 461.904762,238.955205 461.532538,238.377615 C461.288666,238.018226 461.173149,237.658837 461.173149,237.325119 C461.173149,236.644847 461.481196,236.105763 462.122962,235.695033 C462.366834,235.553844 462.982929,235.271467 463.971249,234.860737 C467.552304,233.307663 471.454242,230.958799 475.689899,227.788474 C472.442562,225.003209 469.56745,222.217944 467.051726,219.407008 C464.073931,224.656655 460.711077,229.123347 456.963163,232.79425 C454.85817,234.847901 453.369272,235.874727 452.49647,235.874727 C451.944551,235.874727 451.469644,235.656527 451.084585,235.220126 C450.789372,234.886407 450.648184,234.527018 450.648184,234.167629 C450.648184,233.59004 451.28995,232.691567 452.573482,231.485047 C456.244385,227.993839 459.530227,223.450135 462.405339,217.841099 C463.63753,215.440893 464.81838,212.629958 465.922218,209.382621 L466.281607,208.291619 L456.847645,208.907714 C456.655115,208.933385 456.513926,208.94622 456.411244,208.94622 C454.909511,208.94622 454.165062,208.253113 454.165062,206.879733 C454.165062,205.429342 454.948017,204.659222 456.526762,204.55654 L467.565139,203.799256 C468.027211,202.027981 468.412271,200.295212 468.720318,198.575279 L460.261841,199.268387 C460.017969,199.294057 459.876781,199.306893 459.82544,199.306893 C458.323707,199.306893 457.579258,198.62662 457.579258,197.278912 C457.579258,195.82852 458.323707,195.03273 459.82544,194.878706 L483.378257,192.914902 C483.468104,192.799384 483.570787,192.64536 483.673469,192.478501 C485.508921,189.718906 487.203183,186.47157 488.756257,182.71082 C489.282505,181.375947 490.129637,180.70851 491.297651,180.70851 C491.823899,180.70851 492.350148,180.811192 492.863561,181.029393 C493.877551,181.491465 494.390964,182.184572 494.390964,183.134386 C494.390964,183.596457 494.172763,184.199718 493.736362,184.944166 C492.144782,187.652419 490.463355,190.155307 488.692081,192.45283 L493.556668,192.054935 C493.723527,192.029265 493.85188,192.016429 493.916057,192.016429 C495.469131,192.016429 496.23925,192.722372 496.23925,194.121422 C496.23925,195.520472 495.481966,196.354768 493.954563,196.483122 L474.355025,198.113208 L474.34219,198.138878 Z M487.665255,173.135669 C488.820434,173.135669 489.603389,173.649082 489.988448,174.663073 C490.155307,175.073803 490.245155,175.407521 490.245155,175.677063 C490.245155,177.050443 488.948787,178.064433 486.356052,178.693364 C479.989732,180.246438 471.531254,181.69683 460.993454,183.044539 C460.557053,183.09588 460.249005,183.121551 460.082146,183.121551 C458.657425,183.121551 457.938647,182.51829 457.938647,181.31177 C457.938647,180.195097 458.45206,179.476319 459.466051,179.129765 C459.65858,179.078424 460.467206,178.950071 461.891927,178.73187 C470.286228,177.576691 477.884739,175.93377 484.68746,173.828777 C486.214863,173.366705 487.203183,173.135669 487.665255,173.135669 Z M459.82544,184.353741 C460.351688,184.353741 460.916442,184.623283 461.494032,185.149532 C464.561674,187.960467 466.101912,190.129637 466.101912,191.682711 C466.101912,192.388654 465.768194,192.940572 465.087922,193.351303 C464.561674,193.685021 463.971249,193.864716 463.342318,193.864716 C462.135798,193.864716 461.314337,193.22295 460.877936,191.939417 C460.608394,191.117957 459.889616,189.667565 458.695931,187.588243 C458.336542,186.8823 458.156848,186.368887 458.156848,186.022333 C458.156848,185.470415 458.439225,185.008343 458.991144,184.648954 C459.260685,184.456424 459.530227,184.353741 459.82544,184.353741 L459.82544,184.353741 Z M470.645617,217.597228 C473.084328,219.89475 475.985111,222.320626 479.322295,224.849185 C481.375947,222.962393 483.224233,220.960082 484.87999,218.855089 C485.560262,217.982287 485.906816,217.379027 485.932486,217.045309 C485.958157,216.68592 485.624438,216.506225 484.957002,216.506225 L484.661789,216.506225 L470.658452,217.597228 L470.645617,217.597228 Z M472.429727,182.608138 C473.584906,182.608138 475.048132,183.737646 476.780901,185.983827 C478.372481,188.011808 479.181106,189.4622 479.181106,190.335002 C479.181106,191.040945 478.783211,191.618534 477.987421,192.080606 C477.409832,192.401489 476.806572,192.555513 476.177641,192.555513 C475.086638,192.555513 474.278013,191.836735 473.751765,190.412014 C472.981645,188.307021 472.17302,186.676935 471.351559,185.508921 C470.99217,185.021178 470.812476,184.546271 470.812476,184.058529 C470.812476,183.09588 471.351559,182.608138 472.442562,182.608138 L472.429727,182.608138 Z" id="Shape" fill="#015C93"></path>
            <g id="Group" transform="translate(447.349506, 82.556796)" fill="#F1B9A6">
                <rect id="Rectangle" x="0" y="14.632268" width="37.3507894" height="8.07341805"></rect>
                <rect id="Rectangle" x="14.632268" y="0" width="8.07341805" height="37.3507894"></rect>
            </g>
            <g id="Group" transform="translate(55.538442, 107.200616)" fill="#015C93">
                <rect id="Rectangle" x="44.1150045" y="0" width="8.98472597" height="25.208574"></rect>
                <path d="M44.1150045,33.5258632 L44.1150045,42.664613 C44.1150045,45.6039019 43.7171095,48.2993197 42.9341548,50.7508664 C42.1383648,53.202413 40.996021,55.307406 39.4942883,57.0658452 C37.9925555,58.8242844 36.1571044,60.197664 33.9750995,61.1859838 C31.8059299,62.1614684 29.3415479,62.6492106 26.5819535,62.6492106 C23.8223591,62.6492106 21.3451418,62.148633 19.163137,61.1603132 C16.9811321,60.159158 15.1328456,58.7857785 13.6311128,57.0273392 C12.1293801,55.2689 10.974201,53.1639071 10.1912463,50.7123604 C9.3954563,48.2608138 9.01039661,45.565396 9.01039661,42.626107 L9.01039661,33.5386985 L0.0256706456,33.5386985 L0.0256706456,42.6774483 C0.0256706456,46.720575 0.64176614,50.4813246 1.86112181,53.9468618 C3.08047747,57.4123989 4.85175202,60.4030291 7.13643948,62.9315877 C9.43396226,65.4601463 12.2192273,67.4496214 15.50507,68.8871775 C18.7909126,70.3247337 22.4874856,71.0435117 26.5819535,71.0435117 C30.6764215,71.0435117 34.3729945,70.3247337 37.6588371,68.8871775 C40.9446798,67.4496214 43.7299448,65.4601463 46.0146323,62.9315877 C48.2993197,60.4030291 50.0449236,57.3995636 51.2771146,53.9468618 C52.4964703,50.4813246 53.1125658,46.7334103 53.1125658,42.6774483 L53.1125658,33.5386985 L44.1278398,33.5386985 L44.1150045,33.5258632 Z" id="Path"></path>
                <rect id="Rectangle" x="0" y="0" width="8.98472597" height="25.208574"></rect>
            </g>
            <path d="M226.017199,119.984598 C225.003209,117.302015 223.475805,115.017328 221.434989,113.130535 C220.420999,112.193557 219.278655,111.359261 217.995123,110.640483 L217.995123,124.335772 C218.367347,125.734822 218.547041,127.275061 218.547041,128.956488 C218.547041,131.112822 218.200488,133.089462 217.520216,134.886407 C216.839944,136.683353 215.825953,138.223591 214.478244,139.519959 C213.130535,140.816327 211.474779,141.817482 209.498139,142.53626 C207.534334,143.255038 205.262482,143.614427 202.682582,143.614427 L191.977923,143.614427 L191.977923,122.975228 L182.993197,122.975228 L182.993197,177.409832 L191.977923,177.409832 L191.977923,151.161597 L202.682582,151.161597 C206.712874,151.161597 210.268258,150.609678 213.361571,149.518675 C216.442049,148.427673 219.034784,146.90027 221.126941,144.936465 C223.219099,142.972661 224.810679,140.649467 225.901681,137.928379 C226.992684,135.220126 227.531767,132.229496 227.531767,128.969324 C227.531767,125.709152 227.03119,122.680015 226.017199,120.010268 L226.017199,119.984598 Z" id="Path" fill="#015C93"></path>
            <polygon id="Path" fill="#BEE6FF" points="325.644975 73.7132589 325.644975 29.7907842 311.962521 29.7907842 311.962521 58.5034014 277.037607 19.7150558 170.286228 114.773457 211.71865 114.773457 211.71865 101.078167 206.250802 101.078167 275.972276 38.9937107 331.857271 101.078167 310.486459 101.078167 310.486459 177.461173 324.181748 177.461173 324.181748 114.773457 362.610705 114.773457"></polygon>
            <polygon id="Path" fill="#015C93" points="422.988063 115.184187 401.39905 115.184187 401.39905 177.384161 392.414324 177.384161 392.414324 115.184187 370.77397 115.184187 370.77397 107.200616 422.975228 107.200616 422.975228 115.184187"></polygon>
            <path d="M268.014376,109.151585 C249.839558,109.151585 235.104608,123.886536 235.104608,142.061353 C235.104608,160.23617 249.839558,174.971121 268.014376,174.971121 C286.189193,174.971121 300.924143,160.23617 300.924143,142.061353 C300.924143,123.886536 286.189193,109.151585 268.014376,109.151585 L268.014376,109.151585 Z M286.907971,146.92594 C284.520601,149.364652 281.927865,151.597998 279.424978,153.908356 C278.077269,155.153382 276.72956,156.411244 275.381851,157.65627 C273.045822,159.799769 270.696958,161.943268 268.373765,164.099602 C268.078552,164.381979 267.911693,164.279297 267.680657,164.073931 C266.397125,162.880246 265.100757,161.686561 263.80439,160.505712 C261.545373,158.426389 259.273521,156.359902 257.001669,154.293415 C255.820819,153.215248 254.66564,152.124246 253.497625,151.033243 C251.944551,149.595687 250.378642,148.183802 248.876909,146.682069 C247.182647,144.974971 246.32268,142.959825 246.10448,140.55962 C245.860608,138.018226 246.399692,135.695033 247.72173,133.577204 C249.428828,130.830445 251.906045,129.123347 255.089205,128.507252 C260.711077,127.403414 266.076242,130.830445 267.731998,135.964575 C267.78334,136.131434 267.847516,136.298293 267.97587,136.632011 C268.206905,136.041586 268.360929,135.605185 268.553459,135.168784 C270.222051,131.356694 273.122834,129.020665 277.217302,128.417405 C283.249904,127.531767 288.756257,131.574894 289.770248,137.607496 C290.360673,141.150045 289.398023,144.358876 286.8823,146.913105 L286.907971,146.92594 Z" id="Shape" fill="#F1B9A6"></path>
            <path d="M345.090489,149.595687 C344.256193,148.286484 343.255038,147.298165 342.112694,146.605057 C344.692594,145.988962 346.990117,145.064818 349.018098,143.858298 C351.046079,142.651778 352.766012,141.188551 354.177898,139.468618 C355.589783,137.748684 356.66795,135.823386 357.412399,133.667052 C358.156848,131.510717 358.529072,129.187524 358.529072,126.710307 C358.529072,125.478116 358.426389,124.310101 358.25953,123.167758 L349.197792,123.167758 C349.557181,124.438455 349.736876,125.837505 349.736876,127.390579 C349.736876,129.444231 349.390322,131.331023 348.71005,133.025286 C348.029778,134.719548 347.015787,136.182775 345.668079,137.414966 C344.32037,138.634322 342.638942,139.584136 340.636632,140.251572 C338.634322,140.919009 336.336799,141.252728 333.731228,141.252728 L330.496727,141.252728 L330.496727,148.158131 L331.087152,148.158131 C332.357849,148.158131 333.294827,148.32499 333.898088,148.671544 C334.501348,149.018098 335.066102,149.582852 335.59235,150.365807 L352.894365,175.446027 C353.664485,176.780901 354.88384,177.448338 356.526762,177.448338 L364.523168,177.448338 L345.077654,149.582852 L345.090489,149.595687 Z" id="Path" fill="#015C93"></path>
            <path d="M469.477602,117.853934 L479.424978,117.160827 C480.028238,117.109485 480.605827,117.083815 481.170581,117.083815 C484.584777,117.083815 486.291875,118.033629 486.291875,119.946092 C486.291875,121.126941 485.547427,123.000898 484.0842,125.529457 C481.132075,130.637916 477.063278,135.463997 471.890643,140.007701 C473.700424,141.16288 475.702734,142.34373 477.884739,143.52458 C484.366577,147.079964 490.604544,149.955076 496.611475,152.162752 C498.036196,152.676165 498.754974,153.228084 498.754974,153.831344 C498.754974,154.357592 498.254396,154.781158 497.266076,155.063535 C494.262611,155.962007 492.080606,156.411244 490.694391,156.411244 C489.949942,156.411244 489.000128,156.103196 487.857785,155.499936 C481.594147,152.252599 474.919779,148.145296 467.860352,143.165191 C463.021435,146.605057 457.925812,149.415993 452.586318,151.623668 C448.928251,153.125401 445.167501,154.357592 441.304069,155.320241 C440.841997,155.435759 440.456937,155.499936 440.14889,155.499936 C438.788346,155.499936 438.120909,154.781158 438.120909,153.356437 C438.120909,152.483635 438.531639,151.841869 439.3531,151.431138 C439.686818,151.264279 440.521114,150.994738 441.855988,150.635348 C449.326146,148.645873 456.565268,145.103324 463.560519,140.007701 C458.400719,136.259787 454.421769,133.025286 451.623668,130.317032 C450.750866,129.469901 450.314465,128.725452 450.314465,128.096522 C450.314465,127.583109 450.519831,127.095366 450.930561,126.607624 C451.366962,126.145553 451.867539,125.914517 452.419458,125.914517 C453.189578,125.914517 454.28058,126.543448 455.67963,127.801309 C458.298036,130.124503 462.21281,133.166474 467.436786,136.940059 C471.916314,133.025286 475.394686,128.879476 477.884739,124.528302 C478.32114,123.758183 478.53934,123.193428 478.53934,122.85971 C478.53934,122.397638 478.205622,122.166602 477.52535,122.166602 L477.165961,122.166602 L449.724041,124.310101 C449.557181,124.335772 449.428828,124.348607 449.364652,124.348607 C447.670389,124.348607 446.823258,123.539982 446.823258,121.922731 C446.823258,120.305481 447.670389,119.394173 449.364652,119.278655 L463.778719,118.264664 L469.516108,117.828263 L469.477602,117.853934 Z" id="Path" fill="#015C93"></path>
        </g>
    </g>
</svg>