<?xml version="1.0" encoding="UTF-8"?><svg version="1.1" width="16px" height="16px" viewBox="0 0 16.0 16.0" xmlns="http://www.w3.org/2000/svg" xmlns:xlink="http://www.w3.org/1999/xlink"><defs><clipPath id="i0"><path d="M1024,0 L1024,768 L0,768 L0,0 L1024,0 Z"></path></clipPath><clipPath id="i1"><path d="M15,0 C15.5522847,-1.01453063e-16 16,0.44771525 16,1 C16,1.55228475 15.5522847,2 15,2 L1,2 C0.44771525,2 6.76353751e-17,1.55228475 0,1 C-6.76353751e-17,0.44771525 0.44771525,1.01453063e-16 1,0 L15,0 Z"></path></clipPath></defs><g transform="translate(-22.0 -81.0)"><g clip-path="url(#i0)"><g transform="translate(0.0 34.0)"><g transform="translate(22.0 47.0)"><g clip-path="url(#i1)"><polygon points="0,0 16,0 16,2 0,2 0,0" stroke="none" fill="#9A9A9A"></polygon><path d="M1,0 L15,0 C15.5522847,-1.01453063e-16 16,0.44771525 16,1 C16,1.55228475 15.5522847,2 15,2 L1,2 C0.44771525,2 6.76353751e-17,1.55228475 0,1 C-6.76353751e-17,0.44771525 0.44771525,1.01453063e-16 1,0 Z" stroke="#9A9A9A" stroke-width="2" fill="none" stroke-miterlimit="5"></path></g><g transform="translate(0.0 7.0)"><g clip-path="url(#i1)"><polygon points="0,0 16,0 16,2 0,2 0,0" stroke="none" fill="#9A9A9A"></polygon><path d="M1,0 L15,0 C15.5522847,-1.01453063e-16 16,0.44771525 16,1 C16,1.55228475 15.5522847,2 15,2 L1,2 C0.44771525,2 6.76353751e-17,1.55228475 0,1 C-6.76353751e-17,0.44771525 0.44771525,1.01453063e-16 1,0 Z" stroke="#9A9A9A" stroke-width="2" fill="none" stroke-miterlimit="5"></path></g></g><g transform="translate(0.0 14.0)"><g clip-path="url(#i1)"><polygon points="0,0 16,0 16,2 0,2 0,0" stroke="none" fill="#9A9A9A"></polygon><path d="M1,0 L15,0 C15.5522847,-1.01453063e-16 16,0.44771525 16,1 C16,1.55228475 15.5522847,2 15,2 L1,2 C0.44771525,2 6.76353751e-17,1.55228475 0,1 C-6.76353751e-17,0.44771525 0.44771525,1.01453063e-16 1,0 Z" stroke="#9A9A9A" stroke-width="2" fill="none" stroke-miterlimit="5"></path></g></g></g></g></g></g></svg>