<?xml version="1.0" encoding="UTF-8"?>
<svg width="17px" height="15px" viewBox="0 0 17 15" version="1.1" xmlns="http://www.w3.org/2000/svg" xmlns:xlink="http://www.w3.org/1999/xlink">
    <title>vuesax/outline/element-4</title>
    <g id="Nurse-Man" stroke="none" stroke-width="1" fill="none" fill-rule="evenodd">
        <g id="Nurse-Man-List" transform="translate(-23.000000, -337.000000)">
            <g id="Group-3" transform="translate(-40.000000, 34.000000)">
                <g id="Group-10-Copy-3" transform="translate(50.000000, 280.000000)">
                    <g id="vuesax/outline/element-4" transform="translate(11.000000, 20.000000)">
                        <g id="vuesax/linear/profile-2user" opacity="0">
                            <g id="profile-2user">
                                <path d="M20,0 L20,20 L0,20 L0,0 L20,0 Z" id="Vector" transform="translate(10.000000, 10.000000) rotate(-180.000000) translate(-10.000000, -10.000000) "></path>
                            </g>
                        </g>
                        <g id="Group-23" transform="translate(2.500000, 3.238631)" fill-rule="nonzero" stroke="#9A9A9A">
                            <path d="M4.52680805,5.56511205 C4.52680805,6.27080188 3.95479229,6.84278947 3.24924328,6.84278947 C2.54369428,6.84278947 1.97167852,6.27077372 1.97167852,5.56511205 C1.97167852,4.85953488 2.54369428,4.28754729 3.24924328,4.28754729 C3.95479229,4.28754729 4.52680805,4.85956304 4.52680805,5.56511205" id="Path" stroke-linecap="square"></path>
                            <path d="M14.5425057,9.58716386 L7.0819939,9.58716386 C6.65610143,9.58716386 6.24603803,9.47670108 5.8832929,9.27173698 L1.38805852,6.6692892 L1.38805852,5.864907 C1.38805852,5.48633279 1.07263165,5.17087774 0.694029262,5.17087774 C0.315426878,5.17087774 0,5.48630462 0,5.864907 L0,13.3254188 C0,13.703993 0.315426878,14.0194481 0.694029262,14.0194481 C1.07263165,14.0194481 1.38805852,13.7040212 1.38805852,13.3254188 L1.38805852,11.6534226 L13.6119415,11.6534226 L13.6119415,13.3253061 C13.6119415,13.7038803 13.9273684,14.0193354 14.3059707,14.0193354 C14.6845731,14.0193354 15,13.7039085 15,13.3253061 L15,10.0445737 C15,9.79218429 14.7949204,9.58710753 14.5426465,9.58710753 L14.5425057,9.58716386 Z" id="Path" stroke-linejoin="round"></path>
                            <path d="M5.25007716,5.56753387 C5.50960322,5.52632865 5.77886617,5.55428053 6.03234816,5.65084661 L6.03234816,5.65084661 L8.19238212,6.48649188 C8.36193871,6.55175148 8.53183113,6.58982043 8.71273269,6.61569248 L8.71273269,6.61569248 L17.468736,7.83741494 L7.21869539,9.45587768 C6.80067013,9.46445481 6.37980281,9.34417566 6.02116349,9.13312632 L6.02116349,9.13312632 L4.73022389,8.36170697 C4.27472771,8.09307893 4.02691074,7.63941707 3.99136586,7.17217551 C3.95501357,6.69432054 4.14191441,6.20511925 4.53812431,5.89084251 C4.74937778,5.71478259 4.99519583,5.60800163 5.25007716,5.56753387 Z" id="Path" stroke-linejoin="round"></path>
                            <path d="M14.4786683,0.5 L14.991338,4.82043229 L9.15173521,5.33333333 L8.63893462,1.01280056 L14.4786683,0.5 Z" id="Path"></path>
                            <path d="" id="Path" stroke-width="2"></path>
                        </g>
                    </g>
                </g>
            </g>
        </g>
    </g>
</svg>