<?xml version="1.0" encoding="UTF-8"?>
<svg width="18px" height="16px" viewBox="0 0 18 16" version="1.1" xmlns="http://www.w3.org/2000/svg" xmlns:xlink="http://www.w3.org/1999/xlink">
    <title>vuesax/outline/element-4 copy</title>
    <g id="Patient" stroke="none" stroke-width="1" fill="none" fill-rule="evenodd">
        <g id="Patient-detail-More" transform="translate(-24.000000, -336.000000)">
            <g id="Group-3" transform="translate(-40.000000, 34.000000)">
                <g id="Group-10-Copy-13" transform="translate(50.000000, 280.000000)">
                    <g id="vuesax/outline/element-4-copy" transform="translate(13.000000, 20.000000)">
                        <g id="vuesax/linear/profile-2user" opacity="0">
                            <g id="profile-2user">
                                <path d="M20,0 L20,20 L0,20 L0,0 L20,0 Z" id="Vector" transform="translate(10.000000, 10.000000) rotate(-180.000000) translate(-10.000000, -10.000000) "></path>
                            </g>
                        </g>
                        <g id="Group-23" transform="translate(1.666667, 2.500000)" fill="#00609D" fill-rule="nonzero">
                            <path d="M5.02978672,5.1523072 C5.02978672,5.93640702 4.39421365,6.57194879 3.61027031,6.57194879 C2.82632698,6.57194879 2.19075391,5.93637572 2.19075391,5.1523072 C2.19075391,4.36833257 2.82632698,3.7327908 3.61027031,3.7327908 C4.39421365,3.7327908 5.02978672,4.36836386 5.02978672,5.1523072" id="Path" stroke="#00609D" stroke-width="0.25"></path>
                            <path d="M7.86888211,9.62125366 C7.39566825,9.62125366 6.94004226,9.49851724 6.53699211,9.27077935 L1.54228725,6.3791707 L1.54228725,5.48541271 C1.54228725,5.06477469 1.19181294,4.71426908 0.771143625,4.71426908 C0.350474309,4.71426908 0,5.06474339 0,5.48541271 L0,13.7748703 C0,14.1955083 0.350474309,14.5460139 0.771143625,14.5460139 C1.19181294,14.5460139 1.54228725,14.1955396 1.54228725,13.7748703 L1.54228725,11.9170967 L15.1243794,11.9170967 L15.1243794,13.7747451 C15.1243794,14.1953831 15.4748537,14.5458887 15.895523,14.5458887 C16.3161924,14.5458887 16.6666667,14.1954144 16.6666667,13.7747451 L16.6666667,10.1294868 C16.6666667,9.84905414 16.4388005,9.62119107 16.1584961,9.62119107 L7.86888211,9.62125366 Z" id="Path"></path>
                            <path d="M5.53801984,7.78109924 L6.97515541,8.63986926 C7.27306953,8.81517214 7.62355948,8.92030191 7.97415897,8.92030191 L15.54508,8.92030191 C15.8780916,8.92030191 16.1585274,8.65747278 16.1585274,8.30685451 C16.1585274,8.0089404 15.9306612,7.74598296 15.6327377,7.71102628 L9.60404133,6.86984413 C9.35869367,6.83475914 9.13082747,6.78219269 8.90309271,6.69454125 L6.50216062,5.7657014 C6.13406714,5.62548351 5.7135543,5.67804996 5.39803667,5.94100427 C4.80195807,6.41409295 4.85453392,7.37801466 5.53801046,7.78106481 L5.53801984,7.78109924 Z" id="Path" stroke="#00609D" stroke-width="0.25"></path>
                            <path d="M9.98944102,5.45023697 L14.9666206,5.45023697 C15.4924103,5.45023697 15.9129231,5.02959895 15.9129231,4.50393443 L15.9130454,0.946302541 C15.9130454,0.42051284 15.4924074,0 14.9667428,0 L9.98956326,0 C9.46377356,0 9.04326069,0.42063802 9.04326069,0.946302541 L9.04326069,4.48640915 C9.04313848,5.01219885 9.46380485,5.45033085 9.98956326,5.45033085 L9.98944102,5.45023697 Z M10.6903896,2.47084544 L11.3387937,2.47084544 L11.7594317,1.5245429 C11.8470832,1.34924003 12.1449879,1.34924003 12.2150577,1.5245429 L12.9685822,3.20703239 L13.2314113,2.62869815 C13.2664963,2.54104671 13.3541477,2.47099879 13.4592775,2.47099879 L14.265503,2.47099879 C14.4057209,2.47099879 14.5108507,2.57613169 14.5108507,2.71634645 C14.5108507,2.85656434 14.4057177,2.96169412 14.265503,2.96169412 L13.6170989,2.96169412 L13.1964609,3.90799666 C13.1613759,3.9956481 13.0737245,4.06569602 12.9685947,4.06569602 C12.8634618,4.06569602 12.7758104,4.01312956 12.7407285,3.90799666 L11.987204,2.22550717 L11.7243749,2.80384142 C11.6892899,2.89149285 11.6016385,2.96154077 11.4965087,2.96154077 L10.6902832,2.96154077 C10.5500653,2.96154077 10.4449356,2.85640787 10.4449356,2.71619311 C10.4450578,2.57609727 10.5501905,2.47084544 10.6904084,2.47084544 L10.6903896,2.47084544 Z" id="Shape"></path>
                        </g>
                    </g>
                </g>
            </g>
        </g>
    </g>
</svg>