<?xml version="1.0" encoding="UTF-8"?>
<svg width="18px" height="18px" viewBox="0 0 18 18" version="1.1" xmlns="http://www.w3.org/2000/svg" xmlns:xlink="http://www.w3.org/1999/xlink">
    <title>vuesax/bold/profile-2user</title>
    <g id="Nurse-Man" stroke="none" stroke-width="1" fill="none" fill-rule="evenodd">
        <g id="Nurse-Man-List" transform="translate(-24.000000, -270.000000)">
            <g id="Group-3" transform="translate(-40.000000, 34.000000)">
                <g id="Group-10-Copy-10" transform="translate(50.000000, 215.000000)">
                    <g id="profile-2user" transform="translate(13.000000, 20.000000)">
                        <path d="M3.54166667,5.625 C3.54166667,7.76666661 5.21666686,9.49999981 7.4000001,9.57499981 C7.46666676,9.56666648 7.53333365,9.56666648 7.58333365,9.57499981 C7.60000032,9.57499981 7.60833302,9.57499981 7.62499968,9.57499981 C7.63333302,9.57499981 7.6333334,9.57499981 7.64166673,9.57499981 C9.77500002,9.49999981 11.45,7.76666661 11.4583333,5.625 C11.4583333,3.44166676 9.68333324,1.66666667 7.5,1.66666667 C5.31666676,1.66666667 3.54166667,3.44166676 3.54166667,5.625 Z" id="Vector" fill="#00609D" fill-rule="nonzero"></path>
                        <path d="M3.27578127,11.7907552 C2.21744796,12.4990885 1.63411458,13.4574215 1.63411458,14.4824215 C1.63411458,15.5074215 2.21744796,16.4574223 3.26744795,17.1574223 C4.4341146,17.9407556 5.96744786,18.3324226 7.50078122,18.3324226 C9.03411458,18.3324226 10.5674478,17.9407556 11.7341145,17.1574223 C12.7841145,16.449089 13.3674486,15.4990894 13.3674486,14.465756 C13.3591153,13.440756 12.7841145,12.4907552 11.7341145,11.7907552 C9.40911452,10.2407552 5.61744789,10.2407552 3.27578127,11.7907552 Z" id="Vector" fill="#00609D" fill-rule="nonzero"></path>
                        <path d="M14.04948,9.34012214 C14.0411466,9.34012214 14.0411462,9.34012214 14.0328129,9.34012214 L14.0078123,9.34012214 C13.9578123,9.34012214 13.9078123,9.34012173 13.8661456,9.3567884 C13.0578123,9.39845506 12.3161458,9.14012179 11.7578125,8.66512179 C12.6161458,7.89845511 13.1078125,6.74845537 13.0078125,5.49845537 C12.9494792,4.82345536 12.7161462,4.20678891 12.3661462,3.68178892 C12.6828129,3.52345559 13.04948,3.42345566 13.42448,3.39012233 C15.0578133,3.24845566 16.5161459,4.46512222 16.6578126,6.11512224 C16.7911459,7.73178895 15.6411466,9.14845547 14.04948,9.34012214 Z" id="Vector" fill="#00609D" fill-rule="nonzero"></path>
                        <path d="M16.8735679,15.808663 C16.0402346,16.2669963 14.9902344,16.4836635 13.9485677,16.4586635 C14.5485677,15.9169969 14.8985671,15.2419971 14.9652338,14.5253305 C15.0485671,13.4919971 14.556902,12.5003304 13.5735687,11.7086637 C13.0152353,11.2669971 12.3652344,10.9169968 11.656901,10.6586635 C13.4985677,10.1253301 15.815235,10.4836636 17.240235,11.6336636 C18.0069017,12.2503302 18.3985677,13.0253304 18.3235677,13.8253303 C18.256901,14.6336637 17.7402345,15.333663 16.8735679,15.808663 Z" id="Vector" fill="#00609D" fill-rule="nonzero"></path>
                        <path d="M20,0 L20,20 L0,20 L0,0 L20,0 Z" id="Vector" opacity="0" transform="translate(10.000000, 10.000000) rotate(-180.000000) translate(-10.000000, -10.000000) "></path>
                    </g>
                </g>
            </g>
        </g>
    </g>
</svg>