<?xml version="1.0" encoding="UTF-8"?><svg version="1.1" width="38px" height="38px" viewBox="0 0 38.0 38.0" xmlns="http://www.w3.org/2000/svg" xmlns:xlink="http://www.w3.org/1999/xlink"><defs><clipPath id="i0"><path d="M1024,0 L1024,768 L0,768 L0,0 L1024,0 Z"></path></clipPath><clipPath id="i1"><path d="M18,0 C27.9411255,0 36,8.0588745 36,18 C36,27.9411255 27.9411255,36 18,36 C8.0588745,36 0,27.9411255 0,18 C0,8.0588745 8.0588745,0 18,0 Z"></path></clipPath><clipPath id="i2"><path d="M6.27906977,0 C9.74690424,0 12.5581395,2.81123529 12.5581395,6.27906977 C12.5581395,9.74690424 9.74690424,12.5581395 6.27906977,12.5581395 C2.81123529,12.5581395 0,9.74690424 0,6.27906977 C0,2.81123529 2.81123529,0 6.27906977,0 Z"></path></clipPath><clipPath id="i3"><path d="M14.0569353,0 C19.8707247,0 25.0093495,2.89072291 28.1138972,7.3132561 C24.8152179,11.4322643 19.7440875,14.0697674 14.0569353,14.0697674 C8.36978309,14.0697674 3.29865274,11.4322643 2.47532696e-13,7.31371379 C3.10452109,2.89072291 8.24314594,0 14.0569353,0 Z"></path></clipPath></defs><g transform="translate(-825.0 -45.0)"><g clip-path="url(#i0)"><g transform="translate(159.0 34.0)"><g transform="translate(667.0 12.0)"><g clip-path="url(#i1)"><polygon points="0,0 36,0 36,36 0,36 0,0" stroke="none" fill="#ABD1ED"></polygon></g><g transform="translate(11.7209302325582 6.860465116279067)"><g clip-path="url(#i2)"><polygon points="0,0 12.5581395,0 12.5581395,12.5581395 0,12.5581395 0,0" stroke="none" fill="#FFFFFF"></polygon></g></g><g transform="translate(3.9430646982159487 21.93023255813953)"><g clip-path="url(#i3)"><polygon points="2.47532696e-13,0 28.1138972,0 28.1138972,14.0697674 2.47532696e-13,14.0697674 2.47532696e-13,0" stroke="none" fill="#FFFFFF"></polygon></g></g><path d="M18,36 C27.9411255,36 36,27.9411255 36,18 C36,8.0588745 27.9411255,0 18,0 C8.0588745,0 0,8.0588745 0,18 C0,27.9411255 8.0588745,36 18,36 Z" stroke="#00609D" stroke-width="2" fill="none" stroke-miterlimit="10"></path></g></g></g></g></svg>