<?xml version="1.0" encoding="UTF-8"?>
<svg width="1025px" height="893px" viewBox="0 0 1025 893" version="1.1" xmlns="http://www.w3.org/2000/svg" xmlns:xlink="http://www.w3.org/1999/xlink">
    <title>Group 10</title>
    <defs>
        <polygon id="path-1" points="0 0 412 0 412 62 0 62"></polygon>
        <linearGradient x1="9.27843679%" y1="47.244995%" x2="79.2661993%" y2="51.2976821%" id="linearGradient-3">
            <stop stop-color="#F4A183" offset="0%"></stop>
            <stop stop-color="#FFD2C4" offset="100%"></stop>
        </linearGradient>
        <polygon id="path-4" points="0 0 143 0 143 73 0 73"></polygon>
        <polygon id="path-6" points="0 0 36 0 36 25 0 25"></polygon>
    </defs>
    <g id="First-login-/-Forgot-password" stroke="none" stroke-width="1" fill="none" fill-rule="evenodd">
        <g id="Login-full-screen-Copy" transform="translate(-351.000000, 182.000000)">
            <g id="Group-10" transform="translate(351.000000, -182.000000)">
                <g id="Group-9">
                    <g id="Group-133-Copy" transform="translate(644.500000, 187.000000) rotate(180.000000) translate(-644.500000, -187.000000) translate(514.000000, 0.000000)" fill="#88AFDA">
                        <path d="M192.726926,372.444624 C190.684271,350.448284 187.411077,328.822038 182.923171,307.611282 C177.526209,282.111892 170.372959,257.213532 161.482711,232.997623 C161.402093,232.777541 161.321475,232.555979 161.238878,232.336391 C154.410574,213.806587 146.561931,195.676483 137.706799,177.984076 C137.511436,177.588324 137.311622,177.193065 137.113786,176.797312 C135.827358,174.245646 134.520158,171.699408 133.192679,169.165013 C124.106079,151.817532 113.999634,134.885542 102.97721,118.531883 C102.796685,118.262949 102.616654,117.995989 102.434645,117.727055 C95.0237145,106.772803 87.2012851,96.0815638 79,85.6982417 L79.2087168,85.533427 L79.7458411,85.1120147 L79.8872938,85 C88.1019328,95.4015801 95.9357378,106.111571 103.360023,117.083587 C103.463392,117.233598 103.564783,117.383609 103.664195,117.53362 C114.807299,134.037289 125.02008,151.128666 134.193234,168.642935 C144.972815,189.225027 154.422444,210.582832 162.475352,232.538215 C162.51393,232.639373 162.55053,232.741026 162.587129,232.844158 C168.880288,250.029292 174.317311,267.57909 178.863085,285.408678 C179.008494,285.97418 179.151925,286.541162 179.293378,287.108637 C179.500611,287.924815 179.703887,288.740993 179.905185,289.559145 C180.672788,292.668911 181.413683,295.789039 182.126882,298.921011 C187.723163,323.435461 191.700158,348.598808 194,374 L192.726926,372.444624 Z" id="Fill-115"></path>
                        <path d="M79.9804458,86 C80.15548,77.5913363 79.4027834,58.1221632 67.2798067,37.9159835 C52.2407504,12.8503824 29.4501095,2.89735067 22,-5.68434189e-14 C22.2756912,8.92722498 24.2179261,32.8912522 41.6167208,55.8019211 C55.1786472,73.660307 71.6159935,82.2992237 79.9804458,86" id="Fill-117"></path>
                        <path d="M104,119.01217 C96.823437,114.493843 79.6131545,105.030981 55.9462926,105 C26.5864103,104.962189 6.31743538,119.4648 2.30233598e-14,124.390892 C7.85544716,128.790079 29.5584472,139.560485 58.2642041,136.441923 C80.6391559,134.011279 96.5193999,124.310137 104,119.01217" id="Fill-119"></path>
                        <path d="M139,178.01217 C131.823437,173.493345 114.613154,164.030482 90.9462926,164 C61.5864103,163.962189 41.3174354,178.4648 35,183.390892 C42.8554472,187.790079 64.5584472,198.560485 93.2642041,195.441923 C115.639156,193.011279 131.5194,183.309638 139,178.01217" id="Fill-121"></path>
                        <path d="M139,178 C141.527018,169.984634 148.466853,151.79261 166.324154,136.514593 C188.476748,117.561495 213.073256,115.376604 221,115 C217.883393,123.363454 208.387528,145.432628 184.708102,161.596106 C166.250394,174.194631 148.042979,177.152887 139,178" id="Fill-123"></path>
                        <path d="M162,233.01217 C154.823437,228.493345 137.613154,219.030482 113.946293,219 C84.5864103,218.962189 64.3174354,233.4648 58,238.390892 C65.8554472,242.790079 87.5584472,253.560485 116.264204,250.441923 C138.639156,248.011279 154.5194,238.309638 162,233.01217" id="Fill-125"></path>
                        <path d="M163,233 C165.527018,224.984634 172.466853,206.79261 190.324154,191.514593 C212.476748,172.561495 237.073256,170.376604 245,170 C241.883393,178.363454 232.387528,200.432628 208.708102,216.596106 C190.250394,229.194631 172.042979,232.152887 163,233" id="Fill-127"></path>
                        <path d="M179,287 C181.527018,278.984142 188.466853,260.792118 206.324154,245.514593 C228.476748,226.561495 253.073256,224.376604 261,224 C257.883393,232.363454 248.387528,254.432628 224.708102,270.595614 C206.250394,283.194631 188.042979,286.152396 179,287" id="Fill-129"></path>
                        <path d="M172,46 C164.108173,47.636048 146.081788,52.4960728 129.786433,68.0261265 C109.571521,87.2916081 105.121365,110.491939 104,118 C112.2807,115.835635 134.252004,108.91542 151.952173,87.9285655 C165.748698,71.5705663 170.322179,54.5250103 172,46" id="Fill-131"></path>
                    </g>
                    <g id="Group-198" transform="translate(0.000000, 281.195278)">
                        <g id="Group-4" transform="translate(939.586704, 399.708246) rotate(-10.000000) translate(-939.586704, -399.708246) translate(872.751016, 287.851296)" fill="#FBB6A2">
                            <path d="M53.832802,90.6574864 C41.0980613,80.6160182 27.2466605,72.6098584 12.5547548,66.8080836 C11.6309142,66.4434414 12.1440963,64.7863014 13.0692537,65.151695 C27.3986587,70.8101303 40.9502017,78.5568513 53.4426482,88.2222176 C53.4304206,88.1506418 53.4183812,88.0788781 53.4227078,87.9956548 C53.4227078,87.9935883 53.422896,87.9913339 53.4232722,87.9890796 C50.7096904,75.9083579 48.9861662,63.5108991 48.0470881,50.9834391 C47.1209902,38.6318189 46.9121808,26.2073078 47.0878817,13.7850511 C47.1036834,12.663133 48.6289328,12.7720935 48.613131,13.8913816 C48.3046198,35.7005916 49.2169852,57.5956551 53.0940682,78.8842966 C53.3286495,80.1715342 53.5788446,81.4516331 53.8382574,82.7274111 C55.4310406,67.2482467 60.5590988,52.3756922 68.7649326,39.6460915 C69.3546781,38.7313863 70.6199503,39.6763375 70.0292642,40.5929213 C61.0792412,54.4767526 55.8559959,70.8740037 54.9624421,87.8812462 C59.3399152,106.766556 66.3816835,124.433761 75.03072,141.27869 C80.2217973,151.388916 85.8545724,161.182405 91.5452874,170.925922 C89.9854246,163.024026 88.8403589,155.003589 88.1324762,146.918151 C87.9883789,146.889971 87.846539,146.807687 87.7221939,146.654955 L64.589873,118.202531 C63.9277026,117.387957 65.0893226,116.21851 65.7494237,117.030642 C73.1371384,126.117578 80.5250413,135.204514 87.9129441,144.291262 C86.9678464,131.850031 87.0314298,119.276732 88.1238228,106.784027 C88.069269,106.677508 87.8469152,106.214238 88.0333388,105.717153 C88.0937242,105.556342 88.1810103,105.434231 88.25795,105.347626 C88.8819327,98.6961466 89.7862091,92.0689015 90.9956107,85.5000819 C93.4155425,72.3543646 97.0068764,59.5064102 101.732741,47.1384459 C102.127598,46.1046355 103.571769,46.6422996 103.174279,47.6828731 C96.5070506,65.1321573 92.17228,83.5605837 90.1404327,102.248449 C98.1387739,89.1500732 106.821671,76.6194196 116.160908,64.7055203 C116.824959,63.8586336 117.817274,65.1597732 117.160747,65.9972667 C107.276349,78.6060714 98.1425362,91.9274407 89.7783082,105.872515 C89.0042085,114.23167 88.6923112,122.633094 88.8371609,131.013664 C97.227349,116.065965 107.940589,103.003283 120.496995,92.4641654 C121.294233,91.7951851 122.29934,93.0822349 121.497023,93.7557239 C108.654303,104.53493 97.7627288,117.929378 89.3272047,133.337718 C89.2139585,133.544556 89.0666632,133.658964 88.9109026,133.708748 C89.1816024,143.030888 90.0226717,152.317335 91.4262096,161.482046 C98.7979344,146.485502 108.501741,133.166387 120.104772,122.12436 C120.869842,121.396391 121.87081,122.686822 121.104423,123.415919 C109.415611,134.539666 99.6929932,147.97056 92.3413968,163.129042 C92.1925966,163.435634 91.9696784,163.556054 91.7467603,163.547976 C92.3718717,167.387334 93.0974374,171.203772 93.922893,174.991091 C93.9701102,175.071872 94.0177037,175.152653 94.064921,175.233622 C94.2189885,175.497006 94.229523,175.781994 94.1570981,176.033167 C94.91201,179.416205 95.742921,182.776512 96.6586725,186.106948 C97.1425084,187.866285 97.654938,189.613787 98.1844862,191.353587 C108.370247,178.441384 118.55582,165.52918 128.741769,152.616977 C129.408078,151.772156 130.400581,153.07292 129.741609,153.908347 C119.414572,166.999772 109.087348,180.091197 98.7603111,193.182622 C101.955848,203.331548 105.912128,213.138563 110.580241,222.489259 C111.062007,223.454499 109.676717,224.236761 109.19702,223.275653 C105.816188,216.503378 102.831154,209.487444 100.229314,202.287969 C100.082771,202.302998 99.9260696,202.265237 99.7706853,202.154398 C89.6970419,194.967133 78.8348137,189.419349 67.3771965,185.595397 C66.4366136,185.281478 66.9533698,183.62584 67.8916954,183.939008 C78.9915148,187.64348 89.534321,192.980669 99.3558882,199.812121 C98.6854407,197.880138 98.0339929,195.939324 97.4188517,193.982543 C97.1274591,193.766688 96.9406593,193.303418 97.0744102,192.869266 C95.7184658,188.47158 94.4981535,184.017159 93.4209979,179.514082 C93.2172676,179.53625 93.0056365,179.460541 92.8325692,179.232475 C82.2630505,165.319149 69.7326044,153.622795 55.6646814,144.522333 C54.815335,143.972834 55.6846217,142.512199 56.5283246,143.057941 C70.1302828,151.856883 82.3119608,163.095978 92.6843333,176.375642 C92.643512,176.192851 92.6066412,176.009121 92.5663842,175.82633 C81.5630686,157.032698 70.5155456,138.088963 62.3802555,117.369546 C62.2771676,117.349633 62.1716342,117.300976 62.0676058,117.211554 C51.8064101,108.400964 40.1420528,102.103982 27.5856466,98.592634 C26.6334004,98.3262442 27.153919,96.6715464 28.1001455,96.9362455 C40.073014,100.284153 51.2682085,106.163515 61.2011407,114.300616 C58.3400755,106.645384 55.9874894,98.7878237 54.0784823,90.7837304 C53.9972159,90.7598718 53.9148208,90.7221113 53.832802,90.6574864" id="Fill-61"></path>
                            <path d="M86.7083761,122.775342 C82.4922687,103.48011 75.1734229,85.2641957 65.1243578,68.977427 C64.5445455,68.0373884 65.8499798,67.2504056 66.4242719,68.181008 C76.5500489,84.5921464 83.9109625,102.990935 88.158478,122.428466 C88.4021286,123.544207 86.9531688,123.895236 86.7083761,122.775342" id="Fill-63"></path>
                            <path d="M66.3177544,117.245591 C73.543581,126.563985 80.7694076,135.882379 87.9954204,145.200963 C88.6409693,146.033382 87.4916092,147.214967 86.847364,146.384065 C79.6213512,137.06567 72.3955246,127.747276 65.1696981,118.428882 C64.5241492,117.596273 65.6735093,116.414689 66.3177544,117.245591" id="Fill-65"></path>
                            <path d="M118.863007,179.786145 C120.780605,177.369902 120.877872,176.567864 124.439886,170.061715 C129.934316,160.025924 130.687943,160.023673 131.920115,156.559304 C133.673575,151.629846 134.317587,146.066598 132.883853,141.097564 C132.366174,143.543254 130.723848,145.552664 128.846904,146.942163 C126.97015,148.331849 124.844531,149.201787 122.782172,150.187266 C121.730286,150.689758 116.606115,153.086119 112.712597,157.526776 C111.551286,158.851002 109.90763,162.025017 106.620319,168.372671 C104.48767,172.490713 103.397219,174.604222 102.330325,177.327512 C101.114871,180.430064 100.118647,183.636716 99.3555208,186.906015 C99.0061585,188.402052 98.3399194,190.341123 98.4009011,191.884803 C98.4816401,193.923097 100.102689,192.840458 101.305415,192.370602 C104.376535,191.170921 107.336521,189.586727 110.116222,187.664537 C113.369337,185.415042 116.06184,183.3156 118.863007,179.786145" id="Fill-67"></path>
                            <path d="M99.8396264,200.360614 C98.7443828,197.778798 97.0394315,194.203262 94.4800201,190.21332 C90.934606,184.686595 88.912516,181.53439 85.1191364,179.205049 C80.5797816,176.417982 76.0956142,176.400134 69.0456095,176.372433 C65.0946056,176.357002 59.4439423,176.708011 52.7689097,178.43294 C50.7995502,191.810152 52.8885454,195.751013 55.1247702,196.904622 C59.280648,199.048605 66.8379234,193.059135 70.9941792,196.342969 C72.5726908,197.590094 74.3014559,198.641635 75.9549997,199.790967 C76.7104248,200.315994 77.5238724,200.85924 78.422558,200.822615 C79.3214327,200.785989 80.2668008,199.888201 80.0953796,198.903404 C80.5130653,199.654505 80.6243851,200.61662 80.3938075,201.4802 C86.7101219,204.002894 93.8859993,203.886696 100.253532,201.158751 C99.6105608,200.689499 98.9675895,200.220061 98.3244291,199.750623 L99.8396264,200.360614 Z" id="Fill-69"></path>
                            <path d="M101.479486,151.631577 C104.958109,149.464617 108.666093,147.744659 111.898796,145.12378 C114.262408,143.207335 116.380665,140.756208 117.531049,137.741608 C118.087801,136.282635 118.4103,134.715417 119.073361,133.312156 C119.962773,131.429923 121.402164,129.966651 122.742397,128.459631 C125.526537,125.329121 128.133246,121.429303 128.101735,117.042289 C128.09204,115.757742 127.77575,114.355602 126.833466,113.667806 C125.527289,112.714164 123.780264,113.569469 122.395438,114.452256 C114.684441,119.368158 107.257183,125.213771 101.652589,132.99359 C97.4162639,138.87435 94.2853531,145.954968 93.3022396,153.440711 C93.0926342,155.035224 92.4497062,158.289871 93.1355337,159.663033 C95.6453425,156.34744 98.049596,153.768064 101.479486,151.631577" id="Fill-71"></path>
                            <path d="M68.286329,142.894716 C61.8833703,136.630636 53.0661004,133.648119 44.5571254,134.868188 C46.5320738,140.275112 48.5157601,145.702503 51.1420596,150.723205 C53.7683592,155.744096 57.0779222,160.379144 61.3038217,163.69065 C66.7207307,167.935496 73.3882948,169.749112 79.9842464,169.790804 C80.8386581,169.79611 83.9508591,170.191429 84.3961106,169.21147 C84.9059462,168.089568 82.7267976,165.434905 82.2638805,164.618304 C80.2287168,161.027838 78.3548237,157.319307 76.2881277,153.752151 C73.9972863,149.798015 71.4526668,145.992265 68.286329,142.894716" id="Fill-73"></path>
                            <path d="M101.450285,118.722367 C105.380452,116.211409 109.568643,114.3018 113.742635,112.40015 C115.189496,111.257152 117.164329,109.584253 119.320137,107.366863 C120.224638,106.436506 122.710785,104.086261 124.015666,101.866596 C126.527747,97.5932865 127.616253,92.2810248 127.008583,87.2600561 C120.994921,87.1702234 115.021014,89.6601447 109.989279,93.5752608 C104.957734,97.4901873 100.816112,102.773831 97.3713237,108.507208 C93.5009769,114.949202 89.8735087,122.947539 90.0486161,130.886556 C90.5667447,129.990313 90.8355582,128.953446 91.3368387,128.051138 C92.0777796,126.716724 93.2323526,125.562923 94.2523296,124.510894 C96.4397523,122.254462 98.8908774,120.369111 101.450285,118.722367" id="Fill-75"></path>
                            <path d="M105.142825,90.97747 C114.415765,83.7677977 120.13785,71.0172818 119.726483,58.4812271 C119.73756,58.8190742 115.242318,61.5437695 114.73699,61.9384913 C113.074717,63.2362172 111.47604,64.6397565 109.948788,66.1364493 C106.892184,69.1319136 104.122811,72.5020707 101.696434,76.1566014 C99.2906837,79.7803327 97.2218182,83.6857923 95.5465585,87.7877625 C94.7024354,89.8547141 93.9581939,91.9715492 93.3220459,94.1265526 C93.0760662,94.9600222 91.4166577,99.7703754 92.0369545,100.230097 C92.5497306,100.61008 97.3572216,96.2507568 98.1182693,95.7394513 C100.465199,94.1628315 102.889093,92.7296267 105.142825,90.97747" id="Fill-77"></path>
                            <path d="M83.5844847,89.127856 C83.0541896,82.614031 81.7075847,76.0628175 78.5679316,70.6061524 C75.42847,65.1493004 70.2863309,60.9014056 64.4354725,60.3377739 C63.384263,64.4533134 62.7036858,69.6476981 63.4156595,75.4993728 C64.4927137,84.350727 68.2652749,90.6749923 70.0060594,93.5931649 C70.5549243,94.513109 71.1843865,95.9110652 72.5401806,97.4183827 C74.6447054,99.7579683 76.7490387,102.097554 78.8533721,104.436952 C79.8754823,105.573376 80.8975925,106.7098 81.9198942,107.846036 C82.6144467,108.618483 83.5349011,110.126361 84.4432946,110.46454 C84.5884079,109.490569 84.1563227,108.380318 84.0852976,107.390457 C83.9399929,105.367739 84.0066148,103.29436 83.9867048,101.262482 C83.9470763,97.212372 83.9124253,93.1564672 83.5844847,89.127856" id="Fill-79"></path>
                            <path d="M102.074972,67.4389675 C105.294877,62.1591222 108.091998,56.3880323 109.088969,50.1202479 C110.118491,43.6489372 109.17451,37.0641178 108.230529,30.6330237 C100.47467,35.6924292 95.2252438,44.8911432 92.8338762,54.6132375 C91.6442484,59.4486324 91.0971256,64.4447061 90.9905776,69.4261213 C90.9370198,71.9298899 90.9945519,74.432531 91.1349756,76.9259636 C91.2369816,78.7387199 90.9987154,82.0005912 91.7975412,83.5446101 C92.4538615,83.033821 92.7782366,81.8722362 93.2125662,81.1084956 C94.1302412,79.4951312 95.1911788,77.9638915 96.2074532,76.4281415 C98.1805776,73.4460954 100.204989,70.5052056 102.074972,67.4389675" id="Fill-81"></path>
                            <path d="M38.7918948,91.973466 C31.8274326,89.1606213 24.127911,90.0047213 16.708922,90.8831544 C19.212859,96.2256434 22.2352082,101.28645 26.0642062,105.442077 C29.8932042,109.597515 34.5662428,112.82634 39.7313878,114.188091 C45.6652261,115.752806 52.4979714,115.136329 58.4812271,113.690736 C55.6095725,111.68652 54.6381367,107.586091 52.7029688,104.498962 C50.4551377,100.912959 47.7144485,97.7127769 44.505328,95.2641282 C42.7253644,93.9061705 40.8106775,92.8008737 38.7918948,91.973466" id="Fill-83"></path>
                            <path d="M62.5581826,60.1664924 C65.747672,56.8603552 69.3961681,54.0310446 71.8789179,49.9990543 C75.6089321,43.9414982 76.1470264,36.121806 76.1172985,28.7764768 C70.9098621,30.0938147 66.2367806,33.8602906 62.9111785,38.7339293 C59.5857633,43.6073784 57.5494934,49.5298083 56.5551969,55.5809208 C56.0118675,58.8876266 55.7691828,62.2447442 55.7360895,65.5937124 C55.7087921,68.3676839 55.5588437,71.5762195 56.0991816,74.2618756 C56.5548229,71.9582873 56.507333,69.8199584 57.4247856,67.5967256 C58.6110984,64.7221203 60.5181734,62.2811316 62.5581826,60.1664924" id="Fill-85"></path>
                            <path d="M27.6921127,62.3320864 C19.2264528,57.7422022 9.34331061,56.3971125 0,58.5629728 C4.44219861,68.1085192 11.5794052,75.9866897 20.1533333,80.8076014 C26.8257793,84.5596156 34.3432446,86.4463098 41.8786289,86.3238262 C44.0024944,86.2894416 46.1686109,86.1431675 48.2702192,85.7260911 C47.0681415,84.6001337 46.6554401,82.7231044 45.8717224,81.2187301 C44.8360079,79.2305547 43.671277,77.3299208 42.3924308,75.5333701 C39.8562412,71.9713077 36.8707578,68.8181437 33.5465121,66.1967335 C31.6946372,64.7362229 29.7363804,63.4340675 27.6921127,62.3320864" id="Fill-87"></path>
                            <path d="M27.1940292,42.0116023 C20.1971807,38.5335179 12.0553527,38.0333496 4.64136723,40.6263765 C8.0385881,48.5030878 14.6709551,54.0147016 21.8789862,57.0423717 C28.8054404,59.9391795 37.107476,61.5367515 44.5571254,61.2282768 C43.1608179,59.6813976 42.5298841,58.0417695 41.4965643,56.1498042 C40.3779126,54.101818 39.081128,52.1854451 37.6351525,50.4318522 C34.6954006,46.8664636 31.1347979,43.9705946 27.1940292,42.0116023" id="Fill-89"></path>
                            <path d="M56.0600928,23.6094536 C57.3467723,15.6234777 56.4182485,7.26382989 53.4380231,0 C48.099672,3.39645688 44.330258,9.53143195 42.6425649,16.1460957 C41.5673427,20.360263 41.4234762,24.0107496 42.577995,36.4346853 C44.1890348,53.77179 45.3760273,56.3964522 46.8069508,56.6103522 C47.6246484,56.7324209 48.4259203,56.0532041 49.0196997,55.3836932 C48.8303322,54.1157847 48.5716747,52.1925505 48.8907486,49.9042304 C49.1845231,47.79696 49.7858546,45.6876366 50.3647188,43.6542794 C51.5762555,39.3988625 53.0972371,35.257675 54.3329403,31.0110307 C55.0394341,28.5825369 55.6558697,26.1183932 56.0600928,23.6094536" id="Fill-91"></path>
                            <path d="M78.6323321,121.514599 C73.5961463,114.90435 66.8391211,110.041162 59.4095005,107.67972 C59.5894174,113.735663 60.3464826,119.890489 62.7806639,125.20798 C65.2466609,130.595622 69.3110719,134.822412 73.8190424,138.03537 C78.1714694,141.13769 83.249704,144.03049 88.1859773,145.738931 C87.4229583,144.007542 87.4488202,141.40169 86.992981,139.479438 C86.468859,137.270424 85.800729,135.10992 84.9978938,133.020312 C83.3924096,128.841844 81.2462443,124.945473 78.6323321,121.514599" id="Fill-93"></path>
                        </g>
                        <g id="Group-4-Copy" transform="translate(661.628815, 93.278735) scale(-1, 1) rotate(-16.000000) translate(-661.628815, -93.278735) translate(612.410240, 10.354119)" fill="#D6E9FF">
                            <path d="M39.2352939,67.0933803 C29.7961759,59.6404984 19.5293783,53.6982435 8.63958997,49.3921061 C7.95483004,49.1214648 8.33520574,47.8915183 9.02094171,48.1627173 C19.6420409,52.3624666 29.6865809,58.1121633 38.946108,65.2858986 C38.9370448,65.2327742 38.928121,65.1795105 38.931328,65.1177413 C38.931328,65.1162075 38.9314674,65.1145343 38.9317463,65.1128611 C36.9204121,56.1464241 35.6429186,46.9449015 34.9468646,37.6468907 C34.2604314,28.47939 34.1056598,19.2577889 34.2358911,10.0378611 C34.2476035,9.20516179 35.3781337,9.28603346 35.3664212,10.1167807 C35.1377496,26.3038027 35.8140041,42.554546 38.6877369,58.3551966 C38.861611,59.3105978 39.0470581,60.2607005 39.2393375,61.2075961 C40.4199244,49.7187997 44.2208928,38.6802354 50.3031393,29.2321937 C50.7402646,28.55329 51.6780971,29.2546425 51.2402746,29.9349406 C44.6064275,40.2396642 40.7349056,52.4098742 40.0725945,65.032826 C43.3172216,79.0496986 48.5366511,92.1624818 54.947404,104.664963 C58.7950827,112.168877 62.9701523,119.437707 67.1881675,126.669446 C66.0319815,120.804577 65.1832473,114.851725 64.6585575,108.850629 C64.5517511,108.829714 64.446618,108.768642 64.3544522,108.655282 L47.2085432,87.5375985 C46.7177358,86.933013 47.5787402,86.0650369 48.0680138,86.6678097 C53.5438623,93.4122279 59.0198502,100.156646 64.4958381,106.900925 C63.7953222,97.6669143 63.8424508,88.3348816 64.6521436,79.062666 C64.6117077,78.983607 64.4468968,78.639763 64.5850758,78.2708208 C64.6298341,78.1514654 64.6945315,78.0608334 64.7515599,77.9965543 C65.2140622,73.0597573 65.884321,68.1409473 66.7807416,63.2655012 C68.5744194,53.5086134 71.2363522,43.9727283 74.7392109,34.7930969 C75.0318827,34.025792 76.1023168,34.4248519 75.8076929,35.1971763 C70.8658763,48.1482162 67.6529007,61.8259855 66.1468751,75.6963131 C72.075326,65.9745626 78.511177,56.6741814 85.4335129,47.8315617 C85.9257146,47.2029937 86.6612285,48.1687129 86.1746041,48.7903093 C78.8481888,58.148695 72.0781147,68.0359536 65.8784648,78.3861327 C65.3046942,84.5903839 65.0735128,90.8260078 65.1808769,97.0461545 C71.3997687,85.9518166 79.3405299,76.2565586 88.6474645,68.4343162 C89.2383854,67.9377921 89.9833808,68.8930538 89.3886952,69.3929244 C79.8695422,77.3933632 71.7965976,87.3348616 65.5441023,98.7710914 C65.4601631,98.9246081 65.3509863,99.0095234 65.235535,99.0464734 C65.4361804,105.965463 66.0595894,112.85796 67.0999058,119.660104 C72.5639025,108.529513 79.7564612,98.6439277 88.3567448,90.4484208 C88.9238225,89.9081144 89.6657503,90.8658859 89.0976966,91.4070289 C80.4338312,99.6631896 73.227329,109.631738 67.7782518,120.882521 C67.6679596,121.110077 67.5027304,121.199454 67.3375012,121.193458 C67.8008401,124.043069 68.3386367,126.875669 68.9504727,129.686657 C68.9854706,129.746613 69.0207474,129.80657 69.0557453,129.866666 C69.1699417,130.062152 69.17775,130.273673 69.1240679,130.460097 C69.6836162,132.971022 70.2994958,135.465077 70.97826,137.936961 C71.336884,139.24276 71.716702,140.539774 72.1092085,141.831071 C79.6589969,132.2475 87.208646,122.663928 94.7585739,113.080357 C95.2524488,112.453323 95.9881021,113.418763 95.4996651,114.038826 C87.8451618,123.755417 80.190519,133.472008 72.5360157,143.1886 C74.9045795,150.721238 77.837014,158.000106 81.2970665,164.94029 C81.6541568,165.656701 80.6273654,166.237304 80.271809,165.52396 C77.7659028,160.497507 75.5533655,155.290208 73.6248551,149.946683 C73.5162361,149.957837 73.4000876,149.929811 73.2849152,149.847545 C65.8182293,144.513083 57.7670365,140.39546 49.2745354,137.557283 C48.5773658,137.324289 48.9603908,136.095458 49.6558871,136.327894 C57.883185,139.077391 65.697619,143.038708 72.9774634,148.109083 C72.480521,146.675145 71.9976613,145.234653 71.5417125,143.78231 C71.3257293,143.6221 71.1872715,143.278256 71.286409,142.956024 C70.2813694,139.692016 69.3768616,136.385898 68.578463,133.043668 C68.4274561,133.060121 68.2705929,133.003929 68.1423137,132.834656 C60.3080801,122.508041 51.0203874,113.826886 40.5931013,107.072429 C39.9635572,106.664584 40.6078813,105.580486 41.2332424,105.985541 C51.3151507,112.516207 60.3443329,120.85798 68.0324398,130.714285 C68.0021827,130.578615 67.9748536,130.442249 67.9450148,130.30658 C59.7892465,116.357751 51.6007113,102.297514 45.5707524,86.9193485 C45.4943427,86.9045685 45.4161202,86.8684551 45.3390133,86.8020846 C37.7333118,80.2627737 29.0875728,75.5890884 19.7806382,72.9829292 C19.0748238,72.785212 19.4606374,71.5570781 20.16199,71.7535405 C29.0364006,74.2383922 37.3343914,78.6021158 44.6967807,84.6415562 C42.5761304,78.9597638 40.8323699,73.1278011 39.4173946,67.1870799 C39.3571591,67.1693718 39.2960871,67.1413456 39.2352939,67.0933803" id="Fill-61"></path>
                            <path d="M64.0370309,91.0188728 C60.9487092,76.7631499 55.5876148,63.3048495 48.2266198,51.2718425 C47.8019042,50.5773222 48.7581419,49.9958828 49.178814,50.6834314 C56.5960008,62.8083253 61.9879101,76.4017372 65.0992384,90.7625932 C65.2777138,91.5869265 64.2163429,91.8462736 64.0370309,91.0188728" id="Fill-63"></path>
                            <path d="M49.0111866,87.0064668 C54.4206645,93.8571337 59.8301425,100.707801 65.2397599,107.558607 C65.7230378,108.170582 64.8625912,109.039255 64.3802893,108.428396 C58.9706719,101.577729 53.5611939,94.7270618 48.1517159,87.876395 C47.668438,87.2642801 48.5288847,86.3956069 49.0111866,87.0064668" id="Fill-65"></path>
                            <path d="M87.5683576,133.576389 C88.9758035,131.780201 89.0471936,131.183982 91.6615794,126.347438 C95.694287,118.887026 96.2474213,118.885353 97.1517896,116.310009 C98.4387646,112.645546 98.9114456,108.509936 97.8591379,104.816053 C97.4791805,106.634132 96.2737743,108.127888 94.8961673,109.160814 C93.5186997,110.19388 91.9585737,110.840574 90.4448791,111.57316 C89.6728336,111.946703 85.9118827,113.728111 83.0541848,117.029209 C82.2018253,118.013612 80.9954431,120.373113 78.5826787,125.091835 C77.0173936,128.153107 76.217043,129.724248 75.4339822,131.748689 C74.541884,134.055065 73.8106926,136.438827 73.2505866,138.86916 C72.9941676,139.981285 72.5051729,141.422753 72.5499312,142.570294 C72.6091906,144.085522 73.7989801,143.28071 74.6817362,142.931428 C76.9358248,142.039609 79.1083446,140.86195 81.1485415,139.433031 C83.5362078,137.7608 85.5124046,136.200117 87.5683576,133.576389" id="Fill-67"></path>
                            <path d="M73.2889727,148.793216 C72.4809532,146.856897 71.2231199,144.175304 69.3349059,141.182913 C66.7192652,137.037961 65.2274618,134.673859 62.4288838,132.926892 C59.0799602,130.836638 55.7717512,130.823252 50.5705875,130.802477 C47.6557216,130.790904 43.4869266,131.054155 38.5623998,132.347823 C37.1094985,142.380511 38.6506615,145.336091 40.3004435,146.201279 C43.3664557,147.809231 48.94186,143.317228 52.0081511,145.780049 C53.1727031,146.715372 54.4481051,147.50401 55.6680124,148.36599 C56.2253297,148.759751 56.8254533,149.167177 57.4884615,149.139709 C58.1516092,149.11224 58.8490576,148.438914 58.7225911,147.700333 C59.03074,148.263646 59.1128666,148.985216 58.9427572,149.632887 C63.6026385,151.524865 68.8966651,151.437719 73.594333,149.391805 C73.1199788,149.039874 72.6456247,148.687804 72.1711311,148.335733 L73.2889727,148.793216 Z" id="Fill-69"></path>
                            <path d="M74.8707947,112.358563 C77.4486488,110.742385 80.1964728,109.459593 82.5920868,107.504869 C84.3436556,106.075532 85.9134026,104.247414 86.7659015,101.999042 C87.1784864,100.9109 87.4174762,99.7420255 87.9088412,98.6954346 C88.5679453,97.291614 89.6346147,96.2002647 90.6278025,95.076288 C92.691006,92.7414672 94.6227234,89.8328758 94.5993725,86.5609197 C94.5921874,85.6028693 94.357799,84.557115 93.659514,84.0441376 C92.6915638,83.3328853 91.3969199,83.9707954 90.3706864,84.6292023 C84.6564059,88.295617 79.1523917,92.6554365 74.9990739,98.4578392 C71.8597194,102.843872 69.5395391,108.124792 68.8109969,113.707865 C68.6556676,114.897097 68.1792219,117.324502 68.6874585,118.348644 C70.5473674,115.875784 72.3290539,113.952014 74.8707947,112.358563" id="Fill-71"></path>
                            <path d="M50.5286179,105.660716 C45.8285797,101.051868 39.3563365,98.8574568 33.1103945,99.7551323 C34.5600888,103.733321 36.0161972,107.726569 37.9440104,111.420591 C39.8718236,115.114753 42.3011806,118.525028 45.4031668,120.961496 C49.3794036,124.084676 54.2736733,125.419059 59.1153764,125.449734 C59.7425501,125.453638 62.0270353,125.744498 62.3538684,125.023485 C62.728109,124.198036 61.1285232,122.244846 60.7887227,121.644025 C59.2948278,119.00231 57.9193123,116.273728 56.4022714,113.649164 C54.7206984,110.739875 52.8528418,107.939763 50.5286179,105.660716" id="Fill-73"></path>
                            <path d="M75.0421032,87.65298 C77.9368906,85.8056202 81.0217264,84.4006841 84.0961047,83.0016042 C85.161798,82.1606783 86.6163726,80.9298952 88.2042459,79.2985185 C88.8704612,78.6140374 90.7016467,76.8849175 91.6627646,75.2518675 C93.5130526,72.1079117 94.3147976,68.1995793 93.8672147,64.5055567 C89.4378177,64.439465 85.0377018,66.2713477 81.3315485,69.1517734 C77.6255346,72.0320597 74.5749996,75.9193377 72.0377207,80.1374923 C69.1869944,84.8769903 66.5151618,90.7615196 66.6441382,96.6024061 C67.0257688,95.9430231 67.223765,95.1801802 67.592986,94.5163354 C68.1387303,93.5345812 68.9891377,92.6857076 69.7404076,91.9117099 C71.3515664,90.2516098 73.1569567,88.8645213 75.0421032,87.65298" id="Fill-75"></path>
                            <path d="M77.4198557,67.1330074 C84.1900692,61.8127672 88.367788,52.403767 88.0674473,43.1530242 C88.0755345,43.4023321 84.7935391,45.412969 84.424597,45.7042465 C83.2109642,46.6618786 82.043763,47.6975936 80.92871,48.8020496 C78.6970703,51.0124954 76.6751392,53.4994386 74.9036313,56.1962299 C73.1471824,58.8702934 71.6366948,61.7522529 70.4135806,64.7792236 C69.7972827,66.3044912 69.2539088,67.8665692 68.7894544,69.456813 C68.6098635,70.071856 67.3983223,73.6215644 67.8512036,73.9608071 C68.2255837,74.2412087 71.7355535,71.024329 72.2911976,70.6470208 C74.0047009,69.4835843 75.7743961,68.4259781 77.4198557,67.1330074" id="Fill-77"></path>
                            <path d="M61.4093291,66.1829327 C61.0230972,61.3244975 60.0423191,56.4381756 57.7556029,52.3682392 C55.4690263,48.2981634 51.7238314,45.1298067 47.4624523,44.7094134 C46.6968207,47.7790509 46.2011332,51.6533616 46.7196879,56.0179218 C47.504143,62.6198385 50.2518277,67.3368877 51.5197002,69.513451 C51.9194572,70.1996053 52.3779159,71.2422921 53.3653869,72.3665477 C54.8981838,74.1115631 56.4308414,75.8565785 57.9634989,77.6014544 C58.7079365,78.4490731 59.4523742,79.2966919 60.1969513,80.1441712 C60.7028175,80.7203121 61.3732157,81.844986 62.0348296,82.097222 C62.1405205,81.3707713 61.8258182,80.5426733 61.7740882,79.8043707 C61.6682579,78.2956958 61.7167809,76.7492343 61.7022798,75.2337272 C61.6734169,72.2128915 61.6481794,69.1877334 61.4093291,66.1829327" id="Fill-79"></path>
                            <path d="M75.1306158,49.9778121 C77.5029443,46.0604165 79.5637775,41.7785405 80.2983154,37.1281408 C81.0568358,32.3267341 80.3613395,27.4411093 79.6658432,22.6695415 C73.9515627,26.4233812 70.0839449,33.2483922 68.322058,40.4617267 C67.4455764,44.0493612 67.042473,47.7562117 66.9639717,51.4521863 C66.9245119,53.3098643 66.9668998,55.1667057 67.0703598,57.0167148 C67.1455147,58.3616943 66.9699674,60.7818486 67.5585179,61.9274376 C68.0420747,61.5484563 68.2810644,60.6866153 68.6010653,60.1199559 C69.2771803,58.9229158 70.0588468,57.7868083 70.8076069,56.6473543 C72.2613448,54.4348171 73.7528693,52.2528158 75.1306158,49.9778121" id="Fill-81"></path>
                            <path d="M28.2057649,67.9584283 C23.037647,65.8907629 17.3240637,66.5112438 11.8186552,67.1569622 C13.6767515,71.0841183 15.9195459,74.804215 18.7609301,77.8589331 C21.6023144,80.9135117 25.0700357,83.2869557 28.9029344,84.2879518 C33.3062573,85.4381421 38.376632,84.9849819 42.816626,83.9223561 C40.6856575,82.4490974 39.9647842,79.4349545 38.5287544,77.1656677 C36.8607065,74.5296696 34.8269235,72.1772801 32.4455318,70.3773278 C31.1246744,69.3791204 29.7038428,68.566639 28.2057649,67.9584283" id="Fill-83"></path>
                            <path d="M46.1955279,44.2219385 C48.574131,41.789514 51.2950443,39.7079051 53.1465872,36.7414487 C55.9282937,32.2847226 56.3295845,26.5315401 56.3074145,21.1273606 C52.4239012,22.0965657 48.9388901,24.8676753 46.4587791,28.4533577 C43.9788076,32.0389007 42.4602329,36.3962103 41.7187234,40.8481956 C41.3135284,43.2810385 41.1325432,45.7509708 41.1078634,48.2149074 C41.0875061,50.2558015 40.9756801,52.6164176 41.3786441,54.5923356 C41.7184445,52.8975164 41.6830283,51.3242836 42.3672305,49.6885844 C43.2519386,47.5736508 44.6741645,45.7777421 46.1955279,44.2219385" id="Fill-85"></path>
                            <path d="M20.47085,46.1553291 C14.2127773,42.7120087 6.90685871,41.7029255 5.00867718e-14,43.3277489 C3.28380801,50.4887956 8.55984771,56.3989807 14.8979555,60.0156175 C19.8304301,62.8303698 25.3875685,64.2457634 30.9579532,64.1538765 C32.527979,64.1280812 34.1292381,64.0183467 35.6828107,63.705457 C34.7941984,62.8607664 34.489117,61.4526233 33.9097691,60.3240453 C33.1441375,58.8325207 32.2831331,57.4066696 31.3377712,56.0589014 C29.4629428,53.3866505 27.2559829,51.0211543 24.7985997,49.0545784 C23.4296376,47.9589067 21.9820347,46.9820328 20.47085,46.1553291" id="Fill-87"></path>
                            <path d="M20.1095489,30.9332037 C14.8846814,28.3501905 8.80480521,27.9787386 3.26844239,29.9044603 C5.80530294,35.7541311 10.7579954,39.847353 16.1405626,42.0958642 C21.3128635,44.24719 27.512374,45.4336331 33.0753687,45.2045432 C32.0326819,44.0557472 31.5615347,42.8380709 30.7899075,41.4329954 C29.9545589,39.9120503 28.9861904,38.4888484 27.9064142,37.1865357 C25.7111668,34.5386857 23.0523015,32.3880571 20.1095489,30.9332037" id="Fill-89"></path>
                            <path d="M41.1834505,17.6371347 C42.1336926,11.6713154 41.4479567,5.42634946 39.2469924,3.73732685e-14 C35.3044986,2.53727885 32.5207006,7.12033203 31.2743009,12.0617304 C30.4802248,15.2098692 30.3739761,17.9369176 31.2266145,27.2180569 C32.416404,40.169515 33.293025,42.1302347 34.3497946,42.2900259 C34.9536829,42.3812157 35.5454404,41.8738157 35.98396,41.3736663 C35.8441078,40.4264917 35.6530834,38.9897647 35.8887267,37.280305 C36.1056858,35.7060962 36.5497829,34.1303535 36.9772872,32.6113605 C37.8720346,29.4324068 38.9953142,26.3387867 39.9079091,23.1663864 C40.4296708,21.3522118 40.8849225,19.5114053 41.1834505,17.6371347" id="Fill-91"></path>
                            <path d="M57.6432471,90.2248664 C53.86905,85.284723 48.8052287,81.6502387 43.2373539,79.8854237 C43.3721864,84.4113089 43.939543,89.0110942 45.7637569,92.9851001 C47.6118139,97.0115331 50.6577477,100.170408 54.0360919,102.5716 C57.2978693,104.890107 61.1035784,107.052029 64.8028995,108.328826 C64.231081,107.034879 64.2504623,105.087406 63.9088493,103.650818 C63.5160639,101.999921 63.0153568,100.385276 62.4136995,98.8236162 C61.2105242,95.7008543 59.6021541,92.7889165 57.6432471,90.2248664" id="Fill-93"></path>
                        </g>
                        <g id="Group-5" transform="translate(365.000000, 144.804722)" fill="#FBB6A2">
                            <path d="M15.2387856,128.480827 C17.8052828,119.868557 20.8321301,111.502101 24.3093108,103.398015 C28.4901637,93.6551655 33.322101,84.2918191 38.7912108,75.3388591 C38.8407377,75.2576165 38.8905429,75.1756783 38.9407654,75.0945749 C43.1358086,68.2459924 47.704947,61.637938 52.6398336,55.2844623 C52.7493215,55.1421486 52.8603398,55.0003915 52.9705233,54.8583561 C53.6860207,53.9427077 54.4093088,53.0309545 55.139692,52.1254614 C60.1391306,45.9280716 65.5115515,39.97747 71.2022804,34.3305543 C71.2956303,34.2376261 71.3885629,34.1453935 71.4824693,34.0527436 C75.3053648,30.2723205 79.2712763,26.6294812 83.3630919,23.1398063 L83.2932533,23.05759 L83.112953,22.846554 L83.0655129,22.7906302 C78.9668803,26.2865651 74.9949867,29.9358037 71.1654134,33.7223479 C71.1124085,33.7739592 71.0600991,33.8257096 71.0086245,33.8777382 C65.2576564,39.5748741 59.8304219,45.5805648 54.7829867,51.8374954 C48.8517183,59.1907835 43.3880342,66.9590487 38.4325578,75.0766292 C38.4091855,75.1140508 38.3865089,75.1516116 38.3636931,75.1900071 C34.4890447,81.5445957 30.9260266,88.1131417 27.6952285,94.8639271 C27.5922792,95.0778844 27.4900255,95.2928156 27.3884675,95.5078858 C27.2409996,95.816858 27.0950621,96.1263867 26.9496811,96.43675 C26.3962592,97.6162977 25.8525759,98.8018272 25.3190483,99.9945907 C21.1372216,109.328584 17.5486053,119.050149 14.6081519,129 L15.2387856,128.480827 Z" id="Fill-95"></path>
                            <path d="M71.0797569,34.2026529 C74.2894086,32.9884658 81.8778819,30.618937 91.2891135,32.4869598 C102.963977,34.8043209 109.877158,42.1410545 112,44.588209 C108.529914,45.7012601 99.052044,48.2303527 87.8863623,44.7185588 C79.1829764,41.9812125 73.6355417,36.8888052 71.0797569,34.2026529" id="Fill-99"></path>
                            <path d="M52.4253653,55.060294 C55.6350171,53.8461069 63.2234903,51.4765781 72.6347219,53.3446009 C84.3095851,55.661962 91.2227669,62.9988347 93.3457475,65.44585 C89.8755228,66.5589012 80.3976524,69.0879938 69.2319707,65.5761999 C60.5285848,62.8388536 54.9811501,57.7464463 52.4253653,55.060294" id="Fill-101"></path>
                            <path d="M52.214208,55.0752209 C51.8438689,51.6638672 50.5213883,43.8250713 44.5949891,36.2795276 C37.24316,26.9192417 27.5712163,24.0768644 24.4280642,23.291844 C25.0066669,26.8898887 27.0422797,36.4852772 35.2285543,44.851037 C41.6095997,51.3717278 48.6619021,54.0126681 52.214208,55.0752209" id="Fill-103"></path>
                            <path d="M38.6588792,75.2000233 C41.868531,73.9858363 49.4570043,71.6163074 58.8682359,73.4843303 C70.5430991,75.8016914 77.4562808,83.1384249 79.5792615,85.5855794 C76.1090368,86.6986305 66.6311664,89.2277232 55.4654847,85.7159292 C46.7620988,82.9785829 41.2146641,77.8861756 38.6588792,75.2000233" id="Fill-105"></path>
                            <path d="M38.4477498,75.2149502 C38.0774107,71.8035966 36.7549301,63.9648006 30.8285309,56.4192569 C23.4767018,47.0589711 13.8047581,44.2165937 10.661606,43.4315734 C11.2402086,47.029618 13.2758215,56.6250066 21.4620961,64.9907664 C27.8431415,71.5114572 34.8954439,74.1522583 38.4477498,75.2149502" id="Fill-107"></path>
                            <path d="M27.9972593,95.6139046 C29.1405526,94.9476876 37.9937714,89.9896645 48.206616,93.8982116 C57.3286158,97.3891384 60.8269429,105.386524 61.4126407,106.788098 C58.203128,107.421067 52.0477363,108.18369 44.8038648,106.129811 C35.7564336,103.564687 30.2173462,98.0824826 27.9972593,95.6139046" id="Fill-109"></path>
                            <path d="M27.7861438,95.6288037 C27.4158047,92.2174501 26.0933241,84.3786541 20.1669249,76.8331104 C12.8150958,67.4728246 3.14315214,64.6304472 0,63.8454269 C0.578602653,67.4434715 2.61421554,77.03886 10.8004901,85.4046199 C17.1815355,91.9253107 24.2338379,94.5662509 27.7861438,95.6288037" id="Fill-111"></path>
                            <path d="M49.9458463,0 C52.9401394,1.27358872 59.6906892,4.62776651 64.9099383,12.0792691 C71.3846119,21.3229774 71.3064261,30.8810834 71.1549237,33.9491037 C68.0486386,32.4352651 59.8996483,27.9512033 54.5571383,18.2235174 C50.3927017,10.6409694 49.9340211,3.51555003 49.9458463,0" id="Fill-113"></path>
                        </g>
                        <g id="Group-133" transform="translate(860.000000, 558.804722) scale(-1, 1) rotate(180.000000) translate(-860.000000, -558.804722) translate(823.000000, 505.804722)" fill="#88AFDA">
                            <path d="M54.7352132,105.559744 C54.156718,99.333589 53.229725,93.21219 51.9587164,87.2083974 C50.4302564,79.9906889 48.4044026,72.9431047 45.8866178,66.088691 C45.8637862,66.026396 45.8409545,65.9636819 45.8175626,65.9015265 C43.8837358,60.6565885 41.6609415,55.5247872 39.1531017,50.5168778 C39.0977735,50.4048584 39.0411846,50.2929787 38.985156,50.1809593 C38.6208301,49.4586996 38.2506212,48.7379763 37.8746693,48.0206052 C35.3012761,43.1103287 32.4390556,38.3176585 29.3174226,33.6886875 C29.2662965,33.6125646 29.2153105,33.5370004 29.1637642,33.4608775 C27.0649332,30.3602309 24.8495627,27.3340312 22.5268974,24.3949887 L22.5860076,24.3483372 L22.7381252,24.2290547 L22.7781856,24.1973485 C25.1046328,27.141559 27.323225,30.1730664 29.4258379,33.2787412 C29.4551129,33.3212024 29.4838275,33.3636636 29.5119819,33.4061249 C32.6677923,38.0775571 35.5601282,42.9153423 38.1580339,47.872829 C41.2108918,53.6986756 43.8870975,59.7440913 46.1677413,65.9586535 C46.1786668,65.9872869 46.1890321,66.01606 46.1993974,66.0452521 C47.9816669,70.9095756 49.5214727,75.8771189 50.8088696,80.923858 C50.8500506,81.0839256 50.8906714,81.2444122 50.9307318,81.4050386 C50.9894218,81.6360611 51.0469911,81.8670836 51.1040002,82.0986649 C51.3213912,82.9788971 51.5312182,83.8620624 51.7332013,84.74858 C53.3181101,91.6874971 54.4444248,98.8100869 55.0957572,106 L54.7352132,105.559744 Z" id="Fill-115"></path>
                            <path d="M22.7345954,24.41506 C22.7840406,22.0278736 22.5714121,16.5006523 19.1468046,10.7641978 C14.8984366,3.64817277 8.46033128,0.8225464 6.35575733,0 C6.43363707,2.53440388 6.98229705,9.33769647 11.8972651,15.8419448 C15.7283601,20.9118699 20.3717296,23.3644242 22.7345954,24.41506" id="Fill-117"></path>
                            <path d="M29.4187923,33.6181097 C27.3887364,32.352095 22.5204121,29.7006434 15.8256958,29.6919628 C7.52057773,29.6813683 1.78703192,33.7449346 0,35.1252035 C2.22209393,36.3578359 8.36128674,39.3756551 16.4813704,38.501848 C22.8106402,37.8207924 27.3027325,35.1025762 29.4187923,33.6181097" id="Fill-119"></path>
                            <path d="M39.3305723,50.3931676 C37.3005164,49.1270132 32.4321921,46.4755617 25.7374758,46.4670207 C17.4323577,46.4564262 11.6988119,50.5199926 9.91177995,51.9002615 C12.1338739,53.1328938 18.2730667,56.1507131 26.3931504,55.2769059 C32.7224202,54.5958504 37.2145125,51.8774944 39.3305723,50.3931676" id="Fill-121"></path>
                            <path d="M39.472997,50.432137 C40.1928243,48.1550145 42.1696531,42.9867581 47.2563488,38.6463558 C53.5665689,33.2618824 60.5729442,32.6411665 62.8308964,32.5341754 C61.9431234,34.9101878 59.2382031,41.1799216 52.4930611,45.7718787 C47.2353381,49.351052 42.0489114,50.1914768 39.472997,50.432137" id="Fill-123"></path>
                            <path d="M45.9960837,66.0119116 C43.9660277,64.7457573 39.0977035,62.0943057 32.4029872,62.0857648 C24.0978691,62.0751702 18.3643233,66.1387366 16.5772913,67.5190055 C18.7993853,68.7516379 24.9385781,71.7694571 33.0586617,70.89565 C39.3879316,70.2145944 43.8800239,67.4962385 45.9960837,66.0119116" id="Fill-125"></path>
                            <path d="M46.1384943,66.050881 C46.8583217,63.7737586 48.8351504,58.6055022 53.9218462,54.2650998 C60.2320663,48.8806265 67.2384416,48.2599105 69.4963938,48.1529194 C68.6086208,50.5289318 65.9037005,56.7986657 59.1585585,61.3906228 C53.9008355,64.9697961 48.7144088,65.8102209 46.1384943,66.050881" id="Fill-127"></path>
                            <path d="M50.6421005,81.4333507 C51.3619279,79.1560886 53.3387566,73.9878322 58.4254524,69.6475695 C64.7356724,64.2630962 71.7420478,63.6423802 74,63.5353891 C73.112227,65.9114015 70.4073067,72.1811354 63.6621646,76.7729528 C58.4044416,80.3522658 53.218015,81.1925509 50.6421005,81.4333507" id="Fill-129"></path>
                            <path d="M48.5559039,13.1624185 C46.3329696,13.6230668 41.2553785,14.9914634 36.6653762,19.3641306 C30.9713306,24.7885511 29.7178309,31.3208741 29.4019697,33.434856 C31.73444,32.8254537 37.9232181,30.8769867 42.9089223,24.9678938 C46.7950654,20.3621089 48.0833028,15.5627343 48.5559039,13.1624185" id="Fill-131"></path>
                        </g>
                        <g id="Group-2" transform="translate(0.000000, 186.804722)" fill="#B8D5F5">
                            <path d="M186,262 C180.841302,255.243182 173.393299,245.328189 164.651142,233.09673 C155.526972,220.330277 150.964761,213.947302 149.674645,211.537313 C140.65544,194.691779 133.721161,170.795031 127.708863,158.837857 C127.631652,158.684247 127.553938,158.528878 127.475214,158.375519 C120.920425,145.413974 113.653336,132.829791 105.686813,120.649368 C105.510441,120.376843 105.331041,120.10482 105.153155,119.832546 C103.997273,118.076468 102.826757,116.326423 101.642364,114.586434 C93.5360554,102.677531 84.7184548,91.1573026 75.2796406,80.136369 C75.124968,79.9551044 74.9708,79.7753484 74.8148658,79.5943352 C68.4722793,72.2142795 61.8506261,65.0607415 54.9784184,58.1641416 L55.1171948,58.0263705 L55.474481,57.6733949 L55.5685966,57.5798715 C62.4521588,64.4887903 69.0836525,71.6546472 75.4375933,79.0467706 C75.5256533,79.1475848 75.6124516,79.2483991 75.697736,79.3499675 C85.2374786,90.4702069 94.146167,102.097786 102.330442,114.12108 C111.947648,128.250914 120.657759,143.058541 128.396437,158.419264 C128.433275,158.48991 128.4686,158.561058 128.503925,158.633463 C134.55382,170.657511 140.008489,183.020204 144.835385,195.661205 C144.989048,196.061948 145.141703,196.4642 145.293095,196.866954 C145.513119,197.445442 145.730619,198.024432 145.946858,198.605434 C146.689438,200.599344 147.064891,201.594916 148.360306,205.256912 C149.154359,207.501726 157.335607,220.366228 186,262" id="Fill-134"></path>
                            <path d="M55.5206809,58.1544876 C54.9380724,51.9804317 52.7438912,37.7812094 42.1930994,23.9925349 C29.1044657,6.88754925 11.6385717,1.50014624 5.95908416,0 C6.91437048,6.51647235 10.3560254,23.908565 24.9838157,39.2381136 C36.3856853,51.1869909 49.1064354,56.1419736 55.5206809,58.1544876" id="Fill-136"></path>
                            <path d="M75.5203546,79.9244831 C69.901424,77.2578078 56.5407885,71.8558232 39.2500051,73.8135304 C17.8004713,76.2418717 4.20416818,88.4220435 0,92.5121858 C6.10515263,95.0353075 22.8567266,101.006981 43.5651944,96.3514238 C59.7069091,92.7226135 70.4979102,84.3804227 75.5203546,79.9244831" id="Fill-138"></path>
                            <path d="M106.108214,120.277813 C100.489031,117.611138 87.1286478,112.209154 69.8378644,114.166861 C48.3883306,116.595202 34.7920275,128.775374 30.5878593,132.865516 C36.6930119,135.388889 53.4445859,141.360311 74.1530537,136.704754 C90.2947684,133.075944 101.08577,124.733753 106.108214,120.277813" id="Fill-140"></path>
                            <path d="M106.487578,120.336241 C107.668691,114.247663 111.235245,100.327503 123.079181,87.6241527 C137.771565,71.8649493 155.679777,68.19164 161.478613,67.2478577 C159.893281,73.6411405 154.774198,90.6184114 138.722562,104.46139 C126.210733,115.251532 113.067598,118.953501 106.487578,120.336241" id="Fill-142"></path>
                            <path d="M127.969005,158.607518 C122.349822,155.940843 108.989439,150.538858 91.6986558,152.496565 C70.249122,154.924906 56.6528189,167.105078 52.4486507,171.195221 C58.5538033,173.718594 75.3053773,179.690015 96.0138451,175.034459 C112.15556,171.405648 122.946561,163.063457 127.969005,158.607518" id="Fill-144"></path>
                            <path d="M128.348369,158.665945 C129.529483,152.577367 133.096037,138.657207 144.93972,125.953857 C159.632356,110.194654 177.540569,106.521344 183.339404,105.577311 C181.754073,111.970845 176.63499,128.948116 160.583353,142.791094 C148.071525,153.581236 134.92839,157.283206 128.348369,158.665945" id="Fill-146"></path>
                            <path d="M144.176727,196.966762 C138.557797,194.300087 125.197161,188.898103 107.906378,190.85581 C86.4568438,193.284151 72.8605407,205.464323 68.6563725,209.554465 C74.7615252,212.077838 91.5130991,218.04926 112.221567,213.393703 C128.363282,209.764893 139.154283,201.422702 144.176727,196.966762" id="Fill-148"></path>
                            <path d="M118.850714,21.484397 C113.24768,23.3304794 100.542826,28.3623928 89.991277,41.0023882 C76.901634,56.6826498 75.6089948,73.9083109 75.4225298,79.4566144 C81.2640073,77.1947046 96.6659176,70.3368214 107.781908,53.6157344 C116.446602,40.5822869 118.344559,27.817845 118.850714,21.484397" id="Fill-150"></path>
                        </g>
                        <g id="Group-6" transform="translate(441.000000, 349.804722)" fill="#D7ECFF">
                            <path d="M6.73948119,110.604823 C9.93342764,103.216182 13.511184,96.0946213 17.4622751,89.2539542 C22.2125511,81.030167 27.5023678,73.2124412 33.3159425,65.8270101 C33.3687373,65.7598913 33.4216718,65.6922145 33.4750253,65.6253748 C37.9322761,59.9770766 42.6972174,54.5820434 47.7609103,49.4521361 C47.8733437,49.3371552 47.9871737,49.2227324 48.1003055,49.1080306 C48.8338461,48.3691665 49.5739511,47.6346282 50.3197826,46.9063692 C55.4242588,41.9220021 60.834889,37.1966211 66.4967833,32.7747395 C66.5895234,32.7018997 66.6821239,32.6297575 66.7754226,32.5571967 C70.5776268,29.5983916 74.492404,26.7768937 78.5032733,24.1049827 L78.4497801,24.0244681 L78.311508,23.8178095 L78.2753338,23.7631098 C74.2577603,26.4399047 70.3368377,29.2662865 66.5280692,32.2299755 C66.4755537,32.2701631 66.4234572,32.3107692 66.3721988,32.3515148 C60.6515038,36.8117699 55.1862631,41.5804083 50.0326235,46.6126376 C43.9764441,52.5266199 38.2926217,58.8590825 33.0244537,65.5558839 C32.9997323,65.5867223 32.9755696,65.6177001 32.9511276,65.6493757 C28.8311769,70.8923104 24.9659821,76.3582299 21.3771919,82.0211798 C21.2630825,82.2006282 21.1492524,82.3810533 21.0362604,82.561618 C20.8722892,82.8208832 20.7097147,83.0807066 20.5475592,83.3413673 C19.9303627,84.3319614 19.321267,85.3291139 18.7204117,86.333662 C14.0124554,94.193808 9.79138445,102.461132 6.12326238,111 L6.73948119,110.604823 Z" id="Fill-152"></path>
                            <path d="M78.2416038,24.0468783 C79.1349255,21.1060737 81.6028735,14.4271334 88.0772213,8.77074189 C96.1090162,1.75397535 105.100894,0.85854747 108,0.689843666 C106.892287,3.76014125 103.504201,11.8668544 94.9026966,17.8695841 C88.1981745,22.5486378 81.5472853,23.7016564 78.2416038,24.0468783" id="Fill-154"></path>
                            <path d="M66.401194,32.6480372 C69.3863356,31.906801 76.3915646,30.5998698 84.5715481,33.2540593 C94.7191858,36.546644 100.098111,43.8010471 101.729443,46.2014134 C98.5229262,46.8251569 89.8193244,48.0745977 80.251033,43.7734182 C72.792858,40.4208313 68.3924523,35.306692 66.401194,32.6480372" id="Fill-156"></path>
                            <path d="M47.5936708,49.2301838 C50.5788124,48.4889476 57.5840414,47.1820164 65.7640249,49.8362059 C75.9116626,53.1287906 81.2907276,60.3831937 82.9219197,62.78356 C79.7154031,63.4073035 71.0118012,64.6567443 61.4435098,60.3555648 C53.9853348,57.0029779 49.5849291,51.8888386 47.5936708,49.2301838" id="Fill-158"></path>
                            <path d="M47.4041542,49.2211835 C47.4347417,46.1480951 47.0852903,39.0371391 42.6066701,31.7012447 C37.050924,22.6010071 28.7416073,19.0526457 26.0267249,18.0229803 C26.1617846,21.2838895 26.9605505,30.0326259 33.364226,38.3362299 C38.3555704,44.8087907 44.354346,47.9014146 47.4041542,49.2211835" id="Fill-160"></path>
                            <path d="M33.2128948,65.6894655 C36.1980364,64.9482293 43.2032655,63.6412981 51.3832489,66.2954875 C61.5308866,69.5880723 66.9099516,76.8424754 68.5411437,79.2428416 C65.3346271,79.8665852 56.6310253,81.116026 47.0627338,76.8148464 C39.6045588,73.4622595 35.2041531,68.3481203 33.2128948,65.6894655" id="Fill-162"></path>
                            <path d="M33.0233782,65.6804652 C33.0539657,62.6073768 32.7045143,55.4964208 28.2258941,48.1605264 C22.670148,39.0602888 14.3609709,35.5119273 11.6459489,34.482262 C11.7810086,37.7431712 12.5797746,46.4919076 18.98345,54.7955116 C23.9747944,61.2680723 29.97357,64.3606963 33.0233782,65.6804652" id="Fill-164"></path>
                            <path d="M21.5669599,82.7200935 C24.5522412,81.9788573 31.5573306,80.6719261 39.737314,83.3261156 C49.8849517,86.6187003 55.2640167,93.8731034 56.8952088,96.2734696 C53.6886922,96.8972132 44.9850904,98.146654 35.4167989,93.8454745 C27.9586239,90.4928875 23.5582182,85.3787483 21.5669599,82.7200935" id="Fill-166"></path>
                            <path d="M21.3774294,82.7110793 C21.4080168,79.6379909 21.0585655,72.5270349 16.5799453,65.1911404 C11.0241992,56.0909029 2.71502208,52.5425414 1.05710263e-13,51.5128761 C0.135059743,54.7737852 0.933825692,63.5225217 7.33750115,71.8261257 C12.3288456,78.2986864 18.3276211,81.3913104 21.3774294,82.7110793" id="Fill-168"></path>
                            <path d="M51.2006459,0 C53.7314448,1.44842471 59.3862161,5.14386129 63.2454051,12.3215174 C68.0325537,21.2255618 66.9536121,29.7178238 66.4949397,32.4304805 C63.8896973,30.7565592 57.1094747,25.9088017 53.3810157,16.6937228 C50.4747871,9.51090366 50.818931,3.12541587 51.2006459,0" id="Fill-170"></path>
                        </g>
                        <g id="Group-192" transform="translate(405.000000, 273.804722)" fill="#92BAE7">
                            <path d="M13.4265076,151.235979 C17.2994451,144.226216 20.7947486,137.033623 23.9071365,129.675313 C27.6485901,120.828894 30.8364492,111.743015 33.4594557,102.446337 C33.4833618,102.362018 33.507546,102.277003 33.5308962,102.192267 C35.5316475,95.0725827 37.2007703,87.8287853 38.5342338,80.4752061 C38.5645335,80.3112985 38.5938603,80.1466952 38.623743,79.9823702 C38.8137414,78.9194753 38.9976242,77.8533803 39.1740017,76.7858938 C40.3816799,69.4799006 41.2545329,62.0542465 41.786028,54.5825369 C41.7949233,54.4598149 41.8035407,54.3377886 41.812019,54.2147884 C42.1612992,49.2033624 42.3564402,44.1719001 42.3968861,39.1418293 L42.4811136,39.1418293 L42.697798,39.1453078 L42.7550616,39.1457252 C42.7143377,44.1844228 42.5183628,49.2239552 42.1688046,54.2440079 C42.164496,54.3130216 42.1596313,54.3816179 42.1543497,54.4497968 C41.6228546,61.9948335 40.744442,69.4928407 39.5252277,76.8690998 C38.0921088,85.5372792 36.176141,94.1193306 33.7962268,102.54624 C33.7855246,102.585478 33.7744055,102.624298 33.7628694,102.663675 C31.8974937,109.257129 29.7480238,115.755411 27.3227991,122.12471 C27.246216,122.326881 27.1686599,122.529192 27.0906869,122.731224 C26.9794955,123.022445 26.8673311,123.312832 26.7541938,123.603496 C26.3248557,124.708272 25.8870394,125.809987 25.4399107,126.908502 C21.9437733,135.510312 17.9185035,143.919272 13.4315112,152 L13.4265076,151.235979 Z" id="Fill-172"></path>
                            <path d="M42.5638957,39.3372661 C44.2854174,36.8775391 47.9861471,30.9072954 49.0319028,22.0206653 C50.3292291,10.9965577 46.6999399,2.62920026 45.4423646,0 C43.7283482,2.72103304 39.4235709,10.3104556 39.1379479,21.253305 C38.915287,29.7829004 41.2414123,36.2519631 42.5638957,39.3372661" id="Fill-174"></path>
                            <path d="M41.9240305,54.593696 C41.0433942,51.5622403 38.6608392,44.6957922 32.8269014,39.0646341 C25.5895883,32.0790816 17.731271,31.5221019 15.2018043,31.467698 C16.273551,34.6253541 19.5071376,42.9430384 27.2047833,48.8464946 C33.2048133,53.4480125 39.0345815,54.372045 41.9240305,54.593696" id="Fill-176"></path>
                            <path d="M38.7758946,80.494644 C37.8952582,77.4631883 35.5127032,70.5967402 29.6787654,64.9655821 C22.4414524,57.9800297 14.582996,57.42305 12.0536683,57.368646 C13.125415,60.5263021 16.3590016,68.8439864 24.0566473,74.7474427 C30.0566774,79.3489605 35.8864455,80.2731322 38.7758946,80.494644" id="Fill-178"></path>
                            <path d="M38.8727145,80.6551009 C41.1016863,78.873545 46.4598637,75.118141 53.9487474,74.8418078 C63.2390717,74.4991046 69.7874147,79.7325989 71.8322256,81.5165202 C69.3872644,83.2607864 62.6195963,87.5586996 53.5070393,86.7057679 C46.404129,86.0409542 41.2889049,82.5660575 38.8727145,80.6551009" id="Fill-180"></path>
                            <path d="M33.6089387,102.4579 C32.7283023,99.4264443 30.3457474,92.5599961 24.5118095,86.928838 C17.2744965,79.9432856 9.41604017,79.3863059 6.88671247,79.3317628 C7.95845914,82.489558 11.1920457,90.8072423 18.8896914,96.7106986 C24.8897215,101.312216 30.7194897,102.236249 33.6089387,102.4579" id="Fill-182"></path>
                            <path d="M33.7057726,102.618329 C35.9347443,100.836773 41.2929217,97.081369 48.7818054,96.8050359 C58.0721297,96.4623326 64.6204727,101.695688 66.6652836,103.479748 C64.2203224,105.224014 57.4525153,109.521928 48.3400974,108.668996 C41.237187,108.004182 36.1219629,104.529286 33.7057726,102.618329" id="Fill-184"></path>
                            <path d="M26.7222262,122.358021 C25.8415899,119.326565 23.4590349,112.460117 17.6250971,106.828959 C10.387784,99.8434068 2.52946669,99.2864271 -3.16025132e-14,99.2320231 C1.07174667,102.389679 4.30533327,110.707364 12.0029789,116.61082 C18.003009,121.212338 23.8327772,122.136509 26.7222262,122.358021" id="Fill-186"></path>
                            <path d="M26.8190879,122.518436 C29.0480597,120.73688 34.406237,116.981476 41.8951208,116.705143 C51.1854451,116.36244 57.733649,121.595934 59.778599,123.379995 C58.9942822,124.570899 54.7438497,130.770029 46.851758,132.079063 C39.2666937,133.337172 31.3548654,129.574533 26.8190879,122.518436" id="Fill-188"></path>
                            <path d="M73,49.2305644 C70.7371148,47.8465331 65.345719,45.0162747 58.2672708,45.7434233 C49.4863423,46.6456108 43.8001501,52.4377545 42.0383215,54.3875314 C44.5012123,55.7078363 51.2699923,58.8632662 59.773637,56.8585288 C66.4020379,55.2958411 70.9000103,51.3488404 73,49.2305644" id="Fill-190"></path>
                        </g>
                    </g>
                </g>
                <g id="Group" transform="translate(88.000000, 450.000000)">
                    <g id="Group-197" transform="translate(0.000000, 210.000000)">
                        <mask id="mask-2" fill="white">
                            <use xlink:href="#path-1"></use>
                        </mask>
                        <g id="Clip-196"></g>
                        <path d="M412,31 C412,48.1207778 319.770641,62 206.000062,62 C92.2293585,62 0,48.1207778 0,31 C0,13.8792222 92.2293585,0 206.000062,0 C319.770641,0 412,13.8792222 412,31" id="Fill-195" fill="#B8D5F5" mask="url(#mask-2)"></path>
                    </g>
                    <path d="M56.5688021,184.610789 C66.944482,176.170107 78.9791203,177.513284 91.3239929,178.333989 C105.724483,179.291059 115.281295,175.775591 129.004351,173.538412 C138.623293,171.970298 147.519705,176.135911 157.026533,174.969321 C167.947567,173.629228 176.553431,164.901664 187.692689,164.072129 C198.754599,163.24848 209.887714,169.724149 220.902153,171.0051 C233.080041,172.421434 243.457396,171.620489 253.607591,179.610455 C267.748249,190.741554 280.50444,219.483906 264.72451,234.174338 C251.83568,246.173232 230.417358,239.213352 215.287497,236.732316 C185.213606,231.800514 154.822919,235.706574 124.586233,233.032554 C111.187652,231.847604 97.9737882,229.380582 84.4751004,229.679658 C74.9308543,229.891281 64.1368745,232.497329 54.7452324,229.995551 C28.9917265,223.135316 41.8332256,196.598191 56.5688021,184.610789" id="Fill-193" fill="url(#linearGradient-3)"></path>
                    <g id="Group-61" transform="translate(94.000000, 0.000000)">
                        <path d="M195.152469,77.8042167 C193.907639,43.7130075 179.484196,47.7625984 170.742907,26.1437113 C162.788178,6.47046904 149.797682,-5.01006346 135.537104,2.13697898 C108.79852,-8.12544094 100.507925,26.028259 85.4765324,45.7522636 C56.5288954,83.7371448 70.6528098,106.425156 69.5819295,123.270185 C67.7993572,151.308583 57.9042894,162.113993 51.1597786,184.104893 C42.2082948,213.292131 62.2579342,246.657093 89.618042,241.461009 C105.478776,238.448989 99.8257937,232.648523 130.334815,233.598896 C172.359551,234.907721 191.34558,241.522401 203.742034,229.589589 C244.877563,189.992958 204.522827,169.569705 198.341758,141.246892 C194.898422,125.46891 193.835326,104.321351 195.152469,77.8042167 Z" id="Fill-1" fill="#012D74"></path>
                        <path d="M77,213.94914 C77,213.94914 86.2357329,193.530761 97.7785331,176.068539 C120.934101,178.768892 146.842105,178.567583 169.622459,176 C169.622459,176 186.822379,203.94978 190.938158,222.043271 C193.880718,234.979312 90.9015505,256.271841 77,213.94914" id="Fill-3" fill="#2E59A7"></path>
                        <path d="M129.573612,233 C129.681057,233 129.789978,232.969673 129.88653,232.906431 C151.694938,218.640729 186.311547,203.252942 186.658433,203.09909 C186.947905,202.970942 187.07898,202.631987 186.950859,202.342035 C186.823107,202.051713 186.48416,201.920976 186.195057,202.049309 C185.847063,202.203346 151.14664,217.627932 129.259772,231.945411 C128.994669,232.11868 128.92027,232.474277 129.093436,232.73982 C129.203281,232.908465 129.3866,233 129.573612,233" id="Fill-5" fill="#012869"></path>
                        <path d="M131,256.851433 C131,256.851433 130.464227,242.935808 123.569375,243 C112.001987,243.108275 96.0008381,244.121921 88.8194915,244.934009 C79.4158296,245.997147 73.1936418,251.552554 73.0040577,256.902436 C72.7549639,263.927687 84.0286721,266.967869 91.8167245,265.730753 C121.591364,261.001412 129.858627,256.01611 131,256.851433" id="Fill-7" fill="#FDB88E"></path>
                        <path d="M101.658085,244 C95.8341307,244.347516 90.5945343,244.759374 87.2459243,245.12896 C77.7078331,246.181796 70.1960257,251.896175 70.0037315,257.193273 C69.7510767,264.149397 82.3866181,266.945425 90.2860039,265.720702 C95.4771998,264.915691 100.023864,264.103199 104,263.313899 C104,263.313899 82.7855959,265.782798 81.5279283,257.840237 C79.8120436,247.004388 101.658085,244 101.658085,244" id="Fill-9" fill="#ED715D"></path>
                        <g id="Group-13" transform="translate(119.000000, 188.000000)">
                            <mask id="mask-5" fill="white">
                                <use xlink:href="#path-4"></use>
                            </mask>
                            <g id="Clip-12"></g>
                            <path d="M9.76815547,72.9738786 C9.76815547,72.9738786 159.243017,60.4007709 141.543699,13.4418804 C124.437498,-31.942849 0.689850212,52.1506652 0.689850212,52.1506652 C-2.51660616,54.3640346 6.30236159,73.8088667 9.76815547,72.9738786" id="Fill-11" fill="#2E59A7" mask="url(#mask-5)"></path>
                        </g>
                        <path d="M149.41906,245 C149.621525,245 149.818008,244.891871 149.924942,244.698728 C150.082352,244.413695 149.984205,244.051672 149.705091,243.890434 C148.666033,243.290183 146.465465,241.891954 143.420079,239.956517 C130.641234,231.835554 103.302863,214.554748 81.8111105,205.04912 C81.5174149,204.918639 81.1751127,205.057143 81.047988,205.357651 C80.9204893,205.65835 81.0558398,206.007573 81.3499093,206.13748 C102.762957,215.60853 130.051974,232.857815 142.807076,240.963876 C145.864427,242.906764 148.073594,244.310724 149.133777,244.923393 C149.224073,244.975356 149.322221,245 149.41906,245" id="Fill-14" fill="#012869"></path>
                        <path d="M139,261.467712 C139,261.467712 141.11359,248.108834 148.357149,249.04722 C152.051085,249.525946 156.166769,250.137235 160.315827,250.804079 C169.81561,252.331017 179.491215,254.148932 184.68439,255.329339 C194.454712,257.55044 200.377836,263.968972 199.981258,269.155209 C199.460505,275.965376 187.267647,277.198405 179.215643,275.015074 C148.431729,266.667517 140.293399,260.806736 139,261.467712" id="Fill-16" fill="#FDB88E"></path>
                        <g id="Group-20" transform="translate(165.000000, 251.000000)">
                            <mask id="mask-7" fill="white">
                                <use xlink:href="#path-6"></use>
                            </mask>
                            <g id="Clip-19"></g>
                            <path d="M4.60748628,0 C10.614694,1.13196361 16.0078315,2.25266003 19.4428154,3.07885553 C29.226489,5.43214318 36.3813674,12.3296032 35.9842475,17.8242987 C35.4627827,25.0399597 22.0296021,26.2494337 13.9667812,23.936164 C8.66792925,22.415871 4.03915869,20.973477 0,19.6305451 C0,19.6305451 21.7463718,24.9960565 23.9470543,16.9623591 C26.9492578,6.00210735 4.60748628,0 4.60748628,0" id="Fill-18" fill="#ED715D" mask="url(#mask-7)"></path>
                        </g>
                        <path d="M140.843894,265.978768 C140.843894,265.978768 -19.7838692,252.564529 2.03783943,204.717432 C23.3250725,158.04194 149.244078,245.452174 149.244078,245.452174 C152.51225,247.584785 144.336587,266.724643 140.843894,265.978768" id="Fill-21" fill="#2E59A7"></path>
                        <path d="M91.9652948,185.697479 C87.6439127,183.633052 99.4754812,143.808753 95.347246,105.935525 C90.5339779,61.7770554 168.698199,61.3774949 169.525649,100.868858 C170.387295,142.005007 180.43526,182.876534 175.770047,185.421972 C155.65871,196.394965 110.461562,194.533602 91.9652948,185.697479" id="Fill-23" fill="#ED715D"></path>
                        <path d="M170.151069,158.735257 C171.551517,164.235931 175.996384,165.803498 179.279425,165.922428 C219.347311,167.375172 235.368585,148.144658 228.43175,131.609216 C219.250053,109.72321 181.461711,68.2353356 124,69.0107174 L170.151069,158.735257 Z" id="Fill-25" fill="#ED715D"></path>
                        <path d="M105.734754,160.052117 C104.462667,162.535432 102.282936,165.517315 97.1211034,165.770985 C57.7475685,167.705336 34.9263037,157.570667 42.4146539,128.320216 C46.7154019,111.520876 68.9669111,75.4956242 133,70 L105.734754,160.052117 Z" id="Fill-27" fill="#ED715D"></path>
                        <path d="M123.280494,50 L118.012431,73.0978301 C117.341788,79.0788796 144.025498,80.0073128 145,73.5321561 L144.295203,64.3260131 L123.280494,50 Z" id="Fill-29" fill="#FDB88E"></path>
                        <path d="M119.255558,42.2244448 C116.942194,61.5977699 130.804123,68.3330341 141.862143,67.9874283 C149.537673,67.7474818 154.224293,58.8152193 156.101869,54.4204693 C156.108524,54.4038953 156.119742,54.3837428 156.126206,54.3671688 C157.028774,52.3988165 157.587388,50.2782846 157.811366,48.17169 C157.905102,47.2420386 157.902441,46.3477953 157.870498,45.4411215 C157.849393,44.7572552 157.811937,44.0626534 157.790832,43.343944 C157.76041,42.1901667 157.856618,40.9700934 157.94465,39.5752396 C158.21293,35.2266332 157.46285,33.3004693 156.623788,31.7577678 C152.621651,24.3859108 145.61007,28.5439161 140.087619,16.6620445 C136.524883,9.00729929 120.766935,29.567173 119.255558,42.2244448" id="Fill-31" fill="#FDB88E"></path>
                        <path d="M133.957363,47.8691587 C134.415795,51.2612095 131.102164,54.0330718 127.641119,52.6251772 C126.590987,52.1980066 125.752481,51.3447823 125.343373,50.2873722 C123.976079,46.7523729 126.906101,43.4442672 130.351511,44.0786016 C132.256342,44.4294584 133.697901,45.94959 133.957363,47.8691587" id="Fill-33" fill="#ED715D"></path>
                        <path d="M153.000231,50.0289842 C152.979251,51.93526 154.3913,53.5417477 156.307236,54 C157.173257,52.2436183 157.709252,50.3516261 157.923978,48.4720691 C158.014101,47.6426106 158.011365,46.8447441 157.980715,46.0357868 C157.807037,46.0154536 157.62825,46.0020102 157.447822,46.0001618 C155.012675,45.9803327 153.021758,47.786119 153.000231,50.0289842" id="Fill-35" fill="#ED715D"></path>
                        <path d="M142.546938,67.9992705 C142.800631,67.9958156 143.003238,67.7990714 143,67.5599599 C142.996298,67.3206665 142.787715,67.1293773 142.534214,67.1324685 C142.407946,67.1342868 129.837421,67.2121117 123.817032,60.1618675 C123.658956,59.975306 123.369021,59.9454852 123.171233,60.0960436 C122.973638,60.2462384 122.942408,60.5189892 123.101834,60.7053689 C129.405603,68.0880054 142.013334,68.006362 142.546938,67.9992705" id="Fill-37" fill="#ED715D"></path>
                        <path d="M151.722897,42.9100897 C155.186585,43.4816721 156.802722,41.1457499 156.88284,41.025344 C157.056847,40.766079 157.034314,40.3744136 156.833303,40.15044 C156.632471,39.928081 156.330238,39.9550686 156.156053,40.2124883 C156.067171,40.3414288 154.109637,43.0694777 149.646616,40.963065 C149.395531,40.8438123 149.12084,41.0110429 149.029455,41.3323561 C148.93807,41.6543614 149.066474,42.0107354 149.315771,42.1283735 C150.199934,42.5456424 151.001475,42.7910677 151.722897,42.9100897" id="Fill-39" fill="#002869"></path>
                        <path d="M135.746176,41.9384023 C137.939072,42.2077247 139.598799,41.5095595 139.710265,41.4612466 C139.958089,41.3537285 140.068274,41.0736894 139.956076,40.8358143 C139.844244,40.5982906 139.55359,40.492705 139.305583,40.5996961 C139.146712,40.6680368 135.364739,42.2344286 131.824916,39.1241325 C131.623948,38.9479223 131.312795,38.9607471 131.129215,39.1534716 C130.945634,39.3460205 130.959362,39.6450333 131.159598,39.8210679 C132.730005,41.2008841 134.346719,41.7665841 135.746176,41.9384023" id="Fill-41" fill="#002869"></path>
                        <path d="M145.098633,51.9692957 C145.732732,52.0408417 146.393371,51.9883986 146.996643,51.8009734 C148.014753,51.4841527 148.723163,50.819514 148.939566,49.9770016 C149.21803,48.8939001 148.483488,47.9785802 147.772832,47.0933564 C147.420056,46.6538082 147.055439,46.1993021 146.832095,45.7413718 C146.058968,44.155466 146.091633,41.5178165 146.092041,41.4916851 C146.096328,41.2233426 145.85012,41.0034784 145.550832,41 C145.247869,40.9960895 144.998394,41.2098264 144.993903,41.4776282 C144.992065,41.5936876 144.956747,44.3470362 145.823172,46.1245122 C146.092245,46.6765155 146.490956,47.1733726 146.876601,47.6538299 C147.500288,48.4305633 148.038435,49.1015096 147.868579,49.7623637 C147.688925,50.4617842 147.016241,50.7667106 146.631821,50.8865546 C145.719258,51.1700352 144.591517,51.0253213 143.890456,50.5344114 C143.653639,50.3686122 143.308008,50.4026731 143.118759,50.6128056 C142.93053,50.8225777 142.970339,51.1273239 143.207769,51.2936638 C143.731013,51.6600441 144.398593,51.8900004 145.098633,51.9692957" id="Fill-43" fill="#ED715D"></path>
                        <path d="M138.483254,2.60043501 C136.259046,0.479694909 109.311322,2.22461239 96.7999242,37.5998525 C93.8376654,45.9755687 67,93 67,93 C87.8416647,76.7168485 112.157672,81.6356704 120.377332,70.7587124 C127.660762,61.120584 114.167978,48.0809615 128.428065,35.9153886 C141.72395,24.5723955 145.613297,24.4982791 138.483254,2.60043501" id="Fill-45" fill="#012D74"></path>
                        <path d="M146.976701,57.2185309 C146.832065,58.3164514 146.053519,59.108579 145.238059,58.9878416 C144.422422,58.8671042 143.878664,57.8792015 144.023299,56.7814691 C144.168112,55.6835486 144.946481,54.891421 145.762118,55.0121584 C146.577578,55.1328958 147.121336,56.1206105 146.976701,57.2185309" id="Fill-47" fill="#ED715D"></path>
                        <path d="M91.421163,145 C91.3351608,145.001574 91.24745,144.984331 91.1639158,144.946282 C88.3260338,143.655264 85.3753807,141.624085 82.2515841,139.473701 C75.4247578,134.774268 67.6874095,129.444507 58.6416131,130.243709 C58.3175386,130.269387 58.0310546,130.036037 58.0023872,129.715719 C57.9733401,129.395776 58.2127413,129.113131 58.5370056,129.084454 C68.0097753,128.253952 75.934316,133.706104 82.9257425,138.519119 C86.0054938,140.63914 88.9143798,142.641455 91.6571469,143.889552 C91.9527438,144.023752 92.0820318,144.36956 91.9457193,144.661389 C91.8479464,144.870748 91.6400603,144.995764 91.421163,145" id="Fill-49" fill="#C95345"></path>
                        <path d="M177.577478,144 C177.380491,144 177.188708,143.897193 177.080737,143.712027 C176.918316,143.432953 177.008632,143.072466 177.282741,142.906612 C180.959704,140.68443 184.306249,138.393521 187.259006,136.37222 C195.42225,130.784106 201.868363,126.366627 209.475397,127.074727 C209.792806,127.104073 210.026403,127.389963 209.997598,127.713152 C209.968979,128.03653 209.687251,128.277548 209.370957,128.245173 C202.170162,127.578727 195.875691,131.88999 187.902558,137.348033 C184.93735,139.377665 181.57631,141.678609 177.871286,143.91783 C177.779111,143.973683 177.677458,144 177.577478,144" id="Fill-51" fill="#C95345"></path>
                        <path d="M148.076202,158.25182 C148.096229,158.254444 148.121311,158.258567 148.139093,158.260629 C148.122808,158.259504 148.100722,158.25613 148.076202,158.25182 M136.033887,153.263643 C135.760797,154.031343 137.169855,154.899691 139.122471,155.695318 C139.298977,155.767102 139.219615,156.04262 139.027947,156.023315 C137.519686,155.870562 136.381285,156.023127 136.199163,156.782206 C135.972119,157.729086 137.659507,158.668469 139.881655,159.470281 C140.078938,159.541503 140.059285,159.831078 139.854514,159.903799 C139.469869,160.040246 139.194346,160.275092 139.073618,160.63945 C138.486448,162.41157 149.542161,164.923839 151.169652,164.973882 C156.298825,165.131508 167.861221,164.617771 176.153286,162.272874 C180.662907,160.997622 179.224276,149.846852 175.922312,148.677684 C173.890708,147.95834 172.609678,146.902002 167.571099,145.911826 C162.715952,144.957824 160.254032,145.264642 155.201227,143.916481 C150.763668,142.732318 148.029033,142.483228 147.842232,144.457207 C147.65618,146.422377 154.153044,147.32971 158.006427,149.363291 C157.186973,150.420003 153.218289,150.82016 150.478413,150.815849 C147.195915,150.810601 138.729215,148.662877 137.702744,150.655786 C137.289648,151.457973 138.117151,151.88062 139.231969,152.29221 C139.350638,152.33588 139.296357,152.520121 139.170388,152.501753 C137.604477,152.272905 136.350026,152.375615 136.033887,153.263643" id="Fill-53" fill="#FDB88E"></path>
                        <path d="M122.240529,163.711633 C122.258318,163.712396 122.283784,163.712396 122.304008,163.712968 C122.279103,163.713349 122.25682,163.713159 122.240529,163.711633 M132.013128,159.378832 C131.885796,159.376925 131.861453,159.183186 131.985602,159.158397 C133.152194,158.925377 134.036595,158.634769 133.755901,157.762183 C133.05838,155.594257 124.354626,156.381033 121.111761,155.854736 C118.405005,155.415773 114.548508,154.371378 113.906789,153.177102 C118.03574,151.758387 124.534016,151.534711 124.725015,149.894607 C124.915827,148.254313 122.113383,147.689116 117.542325,148.160114 C112.3376,148.696327 109.291913,148.161639 104.395783,148.901507 C98.9289017,149.727565 97.8819645,149.61239 95.8517565,150.904488 C93.9915751,152.088467 90.8799751,162.192998 95.1317648,164.203988 C102.94962,167.901609 113.090361,169.292293 118.181423,169.964276 C119.796864,170.177465 131.115433,169.443699 130.81695,167.568478 C130.75553,167.183099 130.520714,166.902407 130.162497,166.703139 C129.971685,166.597116 129.998275,166.302885 130.204442,166.263413 C132.526579,165.817776 134.342381,165.147319 134.268416,164.159367 C134.209056,163.367251 133.108939,163.029925 131.594803,162.939158 C131.402493,162.927526 131.367851,162.638062 131.553607,162.594395 C133.608345,162.111383 135.138211,161.46705 134.990093,160.651861 C134.818942,159.708721 133.596174,159.402477 132.013128,159.378832" id="Fill-55" fill="#FDB88E"></path>
                        <path d="M179.80402,75.9083023 C178.943702,75.7464569 178.151813,75.3736117 177.535009,74.8196234 C175.801506,73.2668906 174.47877,70.5157008 175.32324,67.8599069 C168.827218,68.625077 159.344507,63.7434992 159.245498,63.6919781 C159.019697,63.5745537 158.934299,63.3007455 159.054378,63.080461 C159.174457,62.8598123 159.455077,62.7760678 159.680878,62.8938563 C159.781565,62.9462877 169.795683,68.1031301 175.954402,66.8438673 C176.126689,66.808731 176.304384,66.8717215 176.413089,67.0069871 C176.522167,67.1420706 176.542864,67.3257625 176.467162,67.4808719 C175.18321,70.1129988 176.776869,72.9135251 178.161509,74.1536724 C178.985095,74.8935371 180.211991,75.227787 181.443548,75.0484645 C182.792947,74.8514828 183.940412,74.0706561 184.674312,72.8503526 C185.432079,71.588359 185.267622,70.0643906 184.996139,69.0081172 C184.921742,68.7190165 184.996885,68.4129849 185.197141,68.1894234 C185.395533,67.9676825 185.69368,67.8551735 185.993877,67.8883072 C186.549337,67.9496592 187.65317,68.0110112 188.802313,67.7321055 C190.698594,67.2706003 192.043891,65.5551118 192.073538,63.5605356 C192.095353,62.0502212 191.226831,60.192367 188.722509,59.5076645 C187.720109,59.2322178 186.422172,59.3835041 185.509272,59.5577292 C185.25513,59.6065194 184.994647,59.5156748 184.829818,59.3214239 C184.66387,59.1253525 184.621358,58.8564597 184.718875,58.6192443 C185.21616,57.4085897 185.226042,55.9195755 184.744793,54.6362816 C184.211149,53.2109862 183.166796,52.2644909 181.804345,51.971203 C181.779173,51.9655594 181.754001,51.9606439 181.728457,51.9557285 C180.564584,51.7367183 179.301515,52.2419163 178.333983,53.3178515 C177.206842,54.5716527 176.763631,56.2600152 177.230895,57.519096 C177.317971,57.7537628 177.19379,58.0131887 176.953445,58.0982076 C176.712728,58.1834086 176.447211,58.061797 176.359948,57.8271302 C175.781182,56.2672974 176.294874,54.2155564 177.637934,52.7212627 C178.853083,51.370245 180.48478,50.7570894 182.004229,51.0882444 C183.686083,51.4503485 184.968357,52.6000152 185.614621,54.3255166 C186.126636,55.6909165 186.157029,57.2622188 185.709342,58.6035877 C186.684333,58.4453833 187.935841,58.3530823 188.972549,58.6369034 C191.982546,59.4599665 193.026526,61.7265304 192.99949,63.5734614 C192.963876,65.9780217 191.329942,68.0488783 189.025876,68.6094204 C187.735958,68.9227342 186.507384,68.8550104 185.889647,68.7869224 C186.207932,70.007772 186.389356,71.7822458 185.473099,73.3080347 C184.594694,74.7688306 183.212292,75.7045847 181.580409,75.9428925 C180.978894,76.0304601 180.376261,76.0160779 179.80402,75.9083023" id="Fill-57" fill="#E8E2E4"></path>
                        <path d="M159.871234,64.6168161 C159.699232,64.5775856 159.526684,64.5351219 159.353225,64.4889939 C159.109692,64.4243283 158.956437,64.1380756 159.011041,63.8496674 C159.065645,63.5610436 159.303718,63.3819201 159.551073,63.4442145 C167.099516,65.4494925 173.5739,60.6515261 174.286845,60.0979892 C174.292852,60.0932471 174.312327,60.078374 174.318698,60.074063 C174.533655,59.9240389 174.810861,60.0091819 174.937542,60.2639641 C175.064041,60.5189618 174.992328,60.8470315 174.777188,60.99684 C174.052777,61.5598612 167.560373,66.3720539 159.871234,64.6168161" id="Fill-59" fill="#E8E2E4"></path>
                    </g>
                </g>
            </g>
        </g>
    </g>
</svg>