<?xml version="1.0" encoding="UTF-8"?>
<svg width="16px" height="18px" viewBox="0 0 16 18" version="1.1" xmlns="http://www.w3.org/2000/svg" xmlns:xlink="http://www.w3.org/1999/xlink">
    <title>vuesax/bold/setting</title>
    <g id="Settings" stroke="none" stroke-width="1" fill="none" fill-rule="evenodd">
        <g id="Settings---Department" transform="translate(-24.000000, -500.000000)">
            <g id="Group-3" transform="translate(-40.000000, 34.000000)">
                <g id="Group-10" transform="translate(50.000000, 455.000000)">
                    <g id="setting" transform="translate(12.000000, 10.000000)">
                        <path d="M11.4750655,2.02617188 C10.6500655,1.55117189 9.35839844,1.55117189 8.53339831,2.02617188 L4.18339849,4.53450521 C2.45839854,5.70117186 2.35839844,5.87617159 2.35839844,7.73450494 L2.35839844,12.2595048 C2.35839844,14.1178381 2.45839854,14.3011714 4.21673179,15.4845047 L8.52506479,17.9761712 C8.94173145,18.2178378 9.47506517,18.3345048 10.0000652,18.3345048 C10.5250652,18.3345048 11.0583987,18.2178378 11.466732,17.9761712 L15.8167315,15.4678377 C17.5417314,14.301171 17.6417319,14.1261717 17.6417319,12.2678383 L17.6417319,7.73450494 C17.6417319,5.87617159 17.5417322,5.70117186 15.7833989,4.51783856 L11.4750655,2.02617188 Z M7.29173183,10.0011714 C7.29173183,8.5095048 8.50839853,7.29283849 10.0000652,7.29283849 C11.4917318,7.29283849 12.7083985,8.5095048 12.7083985,10.0011714 C12.7083985,11.4928381 11.4917318,12.7095048 10.0000652,12.7095048 C8.50839853,12.7095048 7.29173183,11.4928381 7.29173183,10.0011714 Z" id="Vector" fill="#00609D"></path>
                        <path d="M20,0 L20,20 L0,20 L0,0 L20,0 Z" id="Vector" opacity="0" transform="translate(10.000000, 10.000000) rotate(-180.000000) translate(-10.000000, -10.000000) "></path>
                    </g>
                </g>
            </g>
        </g>
    </g>
</svg>