<?xml version="1.0" encoding="UTF-8"?>
<svg width="18px" height="20px" viewBox="0 0 18 20" version="1.1" xmlns="http://www.w3.org/2000/svg" xmlns:xlink="http://www.w3.org/1999/xlink">
    <title>vuesax/linear/warning-2</title>
    <g id="Nurse-Man" stroke="none" stroke-width="1" fill="none" fill-rule="evenodd">
        <g id="Nurse-Man-List" transform="translate(-22.000000, -499.000000)">
            <g id="Group-3" transform="translate(-40.000000, 34.000000)">
                <g id="Group-10-Copy-8" transform="translate(50.000000, 455.000000)">
                    <g id="warning-2" transform="translate(11.000000, 10.000000)">
                        <path d="M17.5666809,12.8500001 C17.5666809,13.7833334 17.0666748,14.6500347 16.2583415,15.1250347 L11.3083394,17.9833619 C10.5000061,18.4500285 9.49998577,18.4500285 8.68331909,17.9833619 L3.73331706,15.1250347 C2.92497762,14.658368 2.42497762,13.7916667 2.42497762,12.8500001 L2.42497762,7.15002855 C2.42497762,6.21669521 2.92497762,5.34999395 3.73331706,4.87499396 L8.68331909,2.01666668 C9.49165245,1.55000001 10.4916728,1.55000001 11.3083394,2.01666668 L16.2583415,4.87499396 C17.0666748,5.34999395 17.5666809,6.20836188 17.5666809,7.15002855 L17.5666809,12.8500001 Z" id="Vector" stroke="#9A9A9A" stroke-width="1.5" stroke-linecap="round" stroke-linejoin="round" stroke-dasharray="0,0" fill-rule="nonzero"></path>
                        <path d="M20,0 L20,20 L0,20 L0,0 L20,0 Z" id="Vector" opacity="0"></path>
                        <circle id="Oval" stroke="#9A9A9A" stroke-width="1.25" cx="10" cy="10" r="2.70833333"></circle>
                    </g>
                </g>
            </g>
        </g>
    </g>
</svg>