<?xml version="1.0" encoding="UTF-8"?><svg version="1.1" width="16px" height="16px" viewBox="0 0 16.0 16.0" xmlns="http://www.w3.org/2000/svg" xmlns:xlink="http://www.w3.org/1999/xlink"><defs><clipPath id="i0"><path d="M1024,0 L1024,768 L0,768 L0,0 L1024,0 Z"></path></clipPath><clipPath id="i1"><path d="M5.721875,10 C6.41875,10.31875 7.1875,10.5 8,10.5 C8.8125,10.5 9.584375,10.31875 10.278125,10 L12,10 C14.209375,10 16,11.790625 16,14 L16,14.5 C16,15.328125 15.328125,16 14.5,16 L1.5,16 C0.671875,16 0,15.328125 0,14.5 L0,14 C0,11.790625 1.790625,10 4,10 Z M8,0 C10.484375,0 12.5,2.015625 12.5,4.5 C12.5,6.984375 10.484375,9 8,9 C5.515625,9 3.5,6.984375 3.5,4.5 C3.5,2.015625 5.515625,0 8,0 Z"></path></clipPath></defs><g transform="translate(-665.0 -363.0)"><g clip-path="url(#i0)"><g transform="translate(602.0 201.0)"><g transform="translate(63.0 162.0)"><g clip-path="url(#i1)"><polygon points="0,0 16,0 16,16 0,16 0,0" stroke="none" fill="#F03D44"></polygon></g></g></g></g></g></svg>