<?xml version="1.0" encoding="UTF-8"?><svg version="1.1" width="161px" height="173px" viewBox="0 0 161.0 173.0" xmlns="http://www.w3.org/2000/svg" xmlns:xlink="http://www.w3.org/1999/xlink"><defs><clipPath id="i0"><path d="M1024,0 L1024,769 L0,769 L0,0 L1024,0 Z"></path></clipPath><clipPath id="i1"><path d="M160,0 C160.024222,18.3386937 160.03924,33.7576978 160.045053,46.2570123 L160.045894,48.206325 C160.046022,48.5271665 160.046143,48.8459861 160.046258,49.1627838 L160.046869,51.0393064 C160.046959,51.3480162 160.047042,51.6547042 160.047118,51.9593701 L160.047118,62.0538649 C160.047042,62.3100042 160.046959,62.5641216 160.046869,62.816217 L160.046258,64.304526 C160.046143,64.5485336 160.046022,64.7905192 160.045894,65.030483 L160.045053,66.4460019 C160.03924,75.2572875 160.024222,81.1488835 160,84.12079 C159.971014,87.6772569 159.955485,91.5421371 159.953415,95.7154305 L159.953415,97.6634651 C159.955485,101.931655 159.971014,106.508258 160,111.393274 C148.985656,119.165205 132.656706,119.165205 111.01315,111.393274 C78.5478165,99.7353784 61.4515205,95.961995 48.3311292,95.961995 C17.895731,95.961995 1.78535454,108.049968 0,132.225915 L0,0 L160,0 Z"></path></clipPath><clipPath id="i2"><path d="M16.4039201,0.401979875 C16.2654411,10.1913053 16.6749673,20.0191671 18.4152425,29.5748291 C18.5205371,30.1526211 18.6328402,30.7272088 18.7492807,31.2998571 C19.4642206,24.3518486 21.766011,17.6761241 25.4492979,11.9622902 C25.7140122,11.5517138 26.2819448,11.9758665 26.0168083,12.3872862 C21.9994831,18.6192103 19.6549669,25.9793131 19.2538845,33.6132178 C21.2187658,42.0901154 24.379548,50.0202523 28.2617717,57.5813006 C30.591849,62.1193968 33.1201876,66.5153217 35.6745333,70.8888164 C34.9743702,67.3419557 34.4603937,63.7418861 34.1426521,60.1126403 C34.0779723,60.0999916 34.0143057,60.0630575 33.9584919,59.9945016 L23.5752723,47.2232902 C23.2780492,46.8576588 23.7994562,46.3327382 24.0957505,46.6972734 C27.4118149,50.7760536 30.7279637,54.8548338 34.0441125,58.9335296 C33.619894,53.349134 33.6484342,47.7054581 34.1387679,42.0979575 C34.1142808,42.0501455 34.0144746,41.8422011 34.098153,41.6190782 C34.1252577,41.5468964 34.1644372,41.4920854 34.1989725,41.4532118 C34.4790546,38.4676155 34.8849499,35.4928971 35.4278043,32.5444037 C36.5140197,26.6437908 38.126033,20.8768324 40.2472941,15.3253234 C40.4245303,14.8612852 41.0727638,15.1026221 40.8943455,15.569696 C37.9016802,23.4020165 35.9559664,31.6738366 35.0439474,40.0621091 C38.6340988,34.182746 42.5315214,28.5582119 46.7235496,23.2105153 C47.0216171,22.8303801 47.4670296,23.4144122 47.1723396,23.7903312 C42.735609,29.4499444 38.6357875,35.4294007 34.8814035,41.6888147 C34.5339395,45.4409214 34.3939407,49.2120012 34.4589583,52.9737209 C38.2249948,46.2642667 43.0337609,40.4009253 48.6698544,35.670316 C49.0277043,35.3700362 49.4788586,35.9477439 49.1187289,36.2500476 C43.3541202,41.0884236 38.4653064,47.1006822 34.6789203,54.0169004 C34.6280883,54.1097417 34.5619731,54.1610954 34.4920581,54.1834414 C34.6135649,58.367796 34.991089,62.5361289 35.6210838,66.6498195 C38.9299709,59.9184408 43.2856406,53.9399964 48.4938004,48.9836502 C48.8372113,48.6568924 49.2865079,49.236118 48.942506,49.5633817 C43.6958423,54.5564091 39.3317287,60.5850266 36.0318765,67.3890931 C35.9650858,67.5267108 35.8650263,67.5807629 35.7649668,67.5771369 C36.0455556,69.3004785 36.3712344,71.0135324 36.7417501,72.7135161 C36.7629441,72.7497756 36.784307,72.7860352 36.805501,72.8223791 C36.8746561,72.9406022 36.8793846,73.0685226 36.8468758,73.1812645 C37.1857271,74.6997817 37.5586915,76.2080955 37.9697375,77.7030018 C38.1869131,78.4927015 38.4169232,79.2770888 38.6546173,80.0580188 L52.37062,62.6706266 C52.6697008,62.2914189 53.1151977,62.8752824 52.8194101,63.2502738 C48.1839959,69.1265169 43.5484973,75.0027599 38.9130832,80.879003 C40.3474381,85.43447 42.1232618,89.8364663 44.2186004,94.0336383 C44.4348471,94.466898 43.8130428,94.8180255 43.5977249,94.386621 C42.0801982,91.346804 40.7403299,88.197618 39.5724626,84.966047 C39.506685,84.9727929 39.4363479,84.9558437 39.3666018,84.9060922 C34.8449261,81.6800022 29.9692848,79.1898129 24.8263959,77.4733859 C24.404204,77.3324795 24.6361562,76.589327 25.0573349,76.7298961 C30.0396219,78.3926926 34.7718869,80.788354 39.1804151,83.8547332 C38.8794767,82.9875392 38.5870666,82.1163819 38.310953,81.238057 C38.180158,81.1411681 38.0963107,80.9332237 38.1563464,80.7383495 C37.5477145,78.7643953 36.9999626,76.7649751 36.5164684,74.7437148 C36.4250217,74.7536651 36.3300285,74.7196823 36.2523452,74.6173122 C31.5080899,68.3721491 25.883649,63.1221004 19.569093,59.0372489 C19.1878537,58.7905995 19.5780435,58.1349758 19.9567497,58.3799387 C26.0621517,62.3294493 31.5300439,67.374252 36.1858077,73.3349883 C36.1674846,73.2529404 36.1509347,73.170471 36.1328648,73.0884232 C31.1938947,64.652676 26.2350815,56.1495535 22.583459,46.849395 C22.5371868,46.8404565 22.4898168,46.8186165 22.4431224,46.778478 C17.8372617,42.8237393 12.6015751,39.9972635 6.96548158,38.4211527 C6.53805447,38.3015804 6.77169548,37.5588494 7.19642057,37.6776628 C12.5705862,39.1804112 17.5956835,41.8194334 22.0541992,45.4718685 C20.7699758,42.035726 19.7139893,38.5087659 18.8571085,34.9160326 C18.8206312,34.9053234 18.7836472,34.8883742 18.746832,34.8593665 C13.0306909,30.3521331 6.81332361,26.7584722 0.218685556,24.1542761 C-0.195991364,23.9906021 0.0343565569,23.2467749 0.449624546,23.4107862 C6.88154982,25.9506427 12.9643224,29.4278513 18.5717068,33.7662669 C18.5662183,33.7341392 18.5608142,33.7019272 18.5627563,33.6645714 C17.3449859,28.2390433 16.5713614,22.6742953 16.149845,17.0511946 C15.7341548,11.5070218 15.6404282,5.93013104 15.7192936,0.35425216 C15.7263865,-0.149334263 16.4110129,-0.100426004 16.4039201,0.401979875 Z"></path></clipPath><clipPath id="i3"><path d="M0.64866427,0.18719633 C5.19374069,7.55353256 8.497775,15.8120495 10.4043233,24.5368182 C10.5136888,25.0376322 9.86330581,25.1951954 9.75342765,24.6925178 C7.86097728,16.0316216 4.57582561,7.85518995 0.0651822348,0.54467855 C-0.19507348,0.122730934 0.390886367,-0.230515715 0.64866427,0.18719633 Z"></path></clipPath><clipPath id="i4"><path d="M0.600852616,0.127089525 C3.84425152,4.30976242 7.08765042,8.49243531 10.3311329,12.6751933 C10.6208953,13.0488348 10.1049912,13.579203 9.81581405,13.2062426 L0.0855337473,0.658223943 C-0.204228615,0.284497369 0.311675464,-0.245870866 0.600852616,0.127089525 Z"></path></clipPath><clipPath id="i5"><path d="M15.4798441,0 C16.1233929,2.23041072 15.8343204,4.72754125 15.0472586,6.94018749 C14.9341296,7.2582605 14.8299876,7.5113154 14.7147833,7.75119354 L14.6361216,7.90972909 C14.1920483,8.77719596 13.5393488,9.62239277 11.6896682,13.0009068 C10.0908157,15.9212698 10.0471564,16.2812742 9.18641942,17.3658337 C7.92908178,18.9500719 6.7205198,19.8924314 5.26031976,20.9021444 C4.01261787,21.7649425 2.68399272,22.476027 1.30548338,23.0145181 C1.2318664,23.0432773 1.15475784,23.0771511 1.07638696,23.11189 L0.918622651,23.181262 C0.470597998,23.3739486 0.0297618464,23.5034394 0.00175770191,22.7964612 C-0.0256146536,22.1035622 0.273434726,21.2331868 0.430250183,20.5616725 C0.772788351,19.0942084 1.21995543,17.6548644 1.76552655,16.2622469 C2.24441487,15.0398653 2.73387692,14.0911914 3.69114192,12.2427591 C5.16669095,9.39353825 5.90446547,7.96884362 6.42573403,7.3744491 C8.17338645,5.38120684 10.4734318,4.30557165 10.9455836,4.08002166 C11.8712979,3.63767764 12.8254078,3.2471958 13.6678112,2.62341832 C14.5102999,1.99972503 15.2474775,1.09777765 15.4798441,0 Z"></path></clipPath><clipPath id="i6"><path d="M7.6586164,0.000214708352 C10.8230956,0.01264885 12.8358679,0.0206601091 14.8734117,1.27166828 C16.5761156,2.31722104 17.4837549,3.73212623 19.0751566,6.21286267 C20.2239791,8.00379633 20.9892669,9.60871856 21.4808801,10.7675973 L20.8007657,10.4937958 L21.6666667,11.1258507 C18.8085232,12.3503216 15.5875446,12.4024783 12.7523912,11.2701369 C12.8558887,10.8825088 12.8059214,10.4506518 12.6184382,10.1135113 C12.6953827,10.5555492 12.2710429,10.9585323 11.8675722,10.974972 C11.4641864,10.9914118 11.0990607,10.7475691 10.759979,10.5119046 C10.0177661,9.99601287 9.24178915,9.52401619 8.5332553,8.96422946 C6.66767005,7.49024124 3.27549634,10.1786863 1.41008076,9.21633377 C0.406324467,8.6985227 -0.531346116,6.92962 0.352624523,0.925097878 C3.34879295,0.150843069 5.88516091,-0.00671169272 7.6586164,0.000214708352 Z"></path></clipPath><clipPath id="i7"><path d="M13.2719932,0.53993429 C13.893589,0.143684718 14.6777624,-0.240229258 15.2640555,0.187824335 C15.6870108,0.496549913 15.8289813,1.12591709 15.8333333,1.70250133 C15.8474771,3.67166534 14.6774245,5.42214524 13.42773,6.82731235 C12.8261503,7.50375619 12.1800624,8.16056377 11.7808391,9.00542626 C11.4832164,9.63529693 11.3384589,10.3387616 11.0885538,10.9936391 C10.5721902,12.3467785 9.62138521,13.4469963 8.56044969,14.3072153 C7.10941217,15.4836284 5.44503896,16.2556522 3.88361753,17.2283182 C2.34407019,18.1873059 1.26489219,19.3450898 0.138334398,20.8333333 C-0.169507505,20.2169731 0.119078444,18.756086 0.213162361,18.0403697 C0.65444465,14.6803042 2.0597915,11.5020839 3.961317,8.86243404 C6.47700609,5.3703693 9.81081988,2.7464956 13.2719932,0.53993429 Z"></path></clipPath><clipPath id="i8"><path d="M0,0.120536733 C3.81935549,-0.427105686 7.77709281,0.911632492 10.6511376,3.72333994 C12.0723863,5.113712 13.2145693,6.82196846 14.2428409,8.59683007 C15.1705022,10.1979909 16.0116215,11.8626095 16.9251292,13.4742332 C17.1329151,13.8407742 18.1110521,15.0323515 17.8822062,15.5359308 C17.6823498,15.975797 16.285401,15.7983534 15.9018881,15.7959716 C12.9412161,15.7772575 9.94840003,14.9631945 7.51695543,13.0578446 C5.62010977,11.5714352 4.13457275,9.49093841 2.9557267,7.2372512 C1.77688064,4.98364905 0.886479273,2.54749943 0,0.120536733 Z"></path></clipPath><clipPath id="i9"><path d="M16.5926587,0.00105584075 C16.8654187,2.25477782 16.3768299,4.63925021 15.2492521,6.55737663 C14.6635404,7.55369988 13.5476038,8.60863539 13.1416078,9.02623706 C12.1739472,10.0215395 11.2875197,10.7724399 10.6380791,11.2854885 C8.76453248,12.1390667 6.88461297,12.9962177 5.12051024,14.1232914 C3.97168942,14.8624523 2.87147256,15.7087146 1.88962163,16.7215411 C1.43179274,17.1937568 0.913548797,17.7116544 0.580968569,18.3106223 C0.355962835,18.7156338 0.23530266,19.181044 0.00273442222,19.5833333 C-0.0758646352,16.0198104 1.55236795,12.4296609 3.28961954,9.53809473 C4.83585419,6.96459994 6.6948706,4.59297291 8.95334016,2.83571118 C11.2118947,1.07836438 13.8933546,-0.0392666678 16.5926587,0.00105584075 Z"></path></clipPath><clipPath id="i10"><path d="M12.4906677,0 C12.6753146,5.6269585 10.1068881,11.3501804 5.94461765,14.5863283 C4.9330029,15.3728048 3.84500914,16.016116 2.79156167,16.7238007 C2.44995632,16.9533063 0.292056319,18.910041 0.0618906055,18.7394808 C-0.216537044,18.5331293 0.528308352,16.3739446 0.638719316,15.9998318 C0.924261957,15.0325327 1.2583237,14.0823659 1.63721847,13.1545899 C2.38917886,11.3133713 3.31781393,9.56035898 4.39766403,7.9338037 C5.48677218,6.2934238 6.72983848,4.78068837 8.10183187,3.43613832 C8.78735709,2.76432977 9.50494263,2.13433432 10.2510739,1.5518345 C10.3758263,1.45438791 11.0423322,1.04057577 11.6160979,0.662647547 L11.91605,0.462180821 C12.2463654,0.237394972 12.4924079,0.0530763529 12.4906677,0 Z"></path></clipPath><clipPath id="i11"><path d="M0.589301114,0 C3.21552906,0.25299284 5.52363987,2.15971134 6.93282488,4.60908481 C8.34209581,7.05837436 8.94653555,9.99896509 9.18456485,12.9227736 C9.33176492,14.731064 9.34731846,16.5516055 9.36510621,18.3695458 C9.37404305,19.2815787 9.34413901,20.2122399 9.40936075,21.1201611 C9.44124121,21.5644719 9.63518783,22.0628217 9.57005201,22.5 C9.16230868,22.3482043 8.74915169,21.671375 8.43739346,21.3246532 C7.9785211,20.8146397 7.51973466,20.3045424 7.06094823,19.7944451 C6.11639298,18.7443779 5.17183773,17.6942269 4.22719654,16.6440759 C3.61863211,15.9674983 3.33609047,15.340009 3.08972585,14.927081 C2.30835386,13.6172242 0.614994529,10.7785019 0.131545854,6.80546543 C-0.18803211,4.17887111 0.117453144,1.84730924 0.589301114,0 Z"></path></clipPath><clipPath id="i12"><path d="M7.74723739,0 C8.17095451,2.88667369 8.59467162,5.84234884 8.13255833,8.74707425 C7.68505597,11.5604444 6.42953493,14.1508673 4.98424163,16.5207892 C4.1448774,17.8971069 3.23619617,19.2171606 2.35053566,20.5556878 C1.89436867,21.2450276 1.41815413,21.9323429 1.00624469,22.6565208 C0.811290645,22.9993349 0.665690979,23.5207262 0.371093755,23.75 C0.0125312169,23.0569486 0.119479863,21.5928186 0.0736932703,20.7791412 C0.0106623764,19.659934 -0.0151616017,18.5365936 0.00887848318,17.412747 C0.056703811,15.1767791 0.302286445,12.9342315 0.83626515,10.7638065 C1.90965919,6.3999279 4.26592729,2.27097481 7.74723739,0 Z"></path></clipPath><clipPath id="i13"><path d="M0,0.377326932 C3.33010215,-0.0169682768 6.78612474,-0.395852682 9.91220711,0.866726384 C10.8183619,1.23811824 11.6777921,1.73424396 12.4767501,2.34377956 C13.9172023,3.44288491 15.1473935,4.87932509 16.1563595,6.48894524 C17.0249828,7.87464045 17.4610234,9.71516723 18.75,10.6147836 C16.064344,11.263655 12.9973843,11.5403684 10.3339098,10.8380274 C8.01547255,10.2267889 5.91792315,8.77749219 4.19923149,6.91227406 C2.48053982,5.04697079 1.12392213,2.77536722 0,0.377326932 Z"></path></clipPath><clipPath id="i14"><path d="M9.16616213,0 C9.17950587,3.2970391 8.9379758,6.8070017 7.26371419,9.52600838 C6.57792218,10.6397359 5.69397283,11.549028 4.78182356,12.4295696 L4.09507971,13.0873301 C3.75171962,13.4162601 3.41036899,13.7473235 3.0799904,14.0897849 C2.16430778,15.038966 1.30829432,16.1346331 0.775803601,17.4249342 C0.363993992,18.4228589 0.385310406,19.3826734 0.180790329,20.4166667 C-0.0617468162,19.2111777 0.00555933959,17.770988 0.0178120812,16.5258577 C0.0326664323,15.0226331 0.14159834,13.5157506 0.385478252,12.0314961 C0.831780167,9.3153817 1.74578434,6.65702802 3.23843681,4.46952194 C4.73117321,2.2819308 6.82874187,0.591302926 9.16616213,0 Z"></path></clipPath><clipPath id="i15"><path d="M0,0.453359211 C4.193857,-0.518813151 8.63002386,0.084946515 12.4299369,2.14517105 C13.3475309,2.63980848 14.226518,3.22429655 15.0577542,3.87986425 C16.5498817,5.05651567 17.8899518,6.47185114 19.0283509,8.07072553 C19.6023763,8.87712887 20.1251797,9.7302512 20.5900726,10.6226676 C20.9418537,11.297924 21.1270997,12.1404511 21.6666667,12.6458506 C20.7233346,12.8330603 19.7510472,12.8987172 18.7977247,12.9141511 C15.4153772,12.9691294 12.0410727,12.1222641 9.04606531,10.4381275 C5.19755489,8.27420347 1.99393411,4.7379922 0,0.453359211 Z"></path></clipPath><clipPath id="i16"><path d="M0,0.735636252 C3.32785629,-0.428274977 6.98241342,-0.20376846 10.1230327,1.35741143 C11.8918941,2.23672863 13.4901133,3.53657417 14.8096561,5.13694158 C15.4586996,5.92406278 16.0407769,6.78424972 16.5428972,7.7035129 C17.0067151,8.5527442 17.2899173,9.28871094 17.9166667,9.98304623 C14.5728022,10.1215088 10.846334,9.40441945 7.73731197,8.10415253 C4.50190079,6.74514649 1.52488333,4.27119253 0,0.735636252 Z"></path></clipPath><clipPath id="i17"><path d="M5.23629744,0 C6.57400734,3.26045715 6.99078639,7.01278529 6.41324486,10.5973864 C6.23180445,11.723554 5.95510994,12.8296144 5.63799177,13.919673 C5.08333156,15.8258302 4.4006207,17.6846519 3.85680794,19.5947467 C3.59697781,20.5074435 3.32706296,21.4542386 3.19519874,22.4001122 C3.05197861,23.4272521 3.16808014,24.2905188 3.25308001,24.8596348 C2.98655498,25.1601528 2.62689449,25.4650274 2.25986113,25.4102354 C1.61757394,25.3142238 1.08477811,24.1361127 0.361643581,16.3541454 C-0.156575997,10.7775129 -0.0919998209,9.13894819 0.390626589,7.24736864 C1.14816785,4.27829752 2.84011452,1.5245404 5.23629744,0 Z"></path></clipPath><clipPath id="i18"><path d="M0,0 C3.3348743,1.05996191 6.3678461,3.24286206 8.62839847,6.20995145 C9.80168429,7.74994036 10.7650163,9.49887332 11.4856572,11.3744289 C11.8460194,12.3123742 12.1459175,13.2821426 12.381176,14.2736848 C12.5857849,15.1365107 12.5741764,16.3061787 12.9166667,17.0833333 C10.7009612,16.3164793 8.42153471,15.0180113 6.46789567,13.6254976 C4.44443906,12.183323 2.62007942,10.2860774 1.5131871,7.86776973 C0.420575653,5.48095023 0.0807578745,2.71828266 0,0 Z"></path></clipPath></defs><g transform="translate(1.0 -597.0)"><g clip-path="url(#i0)"><g transform="translate(-0.047806472152842616 34.0)"><g transform="translate(0.0 563.7951225915317)"><g transform="translate(160.04780647215279 171.43079251737842) rotate(-180.0)"><g clip-path="url(#i1)"><polygon points="0,0.225915109 160,0.225915109 160,132.225915 0,132.225915 0,0.225915109" stroke="none" fill="#EFF5FB"></polygon></g></g><g transform="translate(79.52927811497338 10.418890660015869) rotate(-10.0)"><g transform="translate(5.416666666666664 5.833333333333357)"><g clip-path="url(#i2)"><polygon points="-2.25319763e-13,-1.49579423e-14 52.9166667,-1.49579423e-14 52.9166667,94.5833333 -2.25319763e-13,94.5833333 -2.25319763e-13,-1.49579423e-14" stroke="none" fill="#FFE1D8"></polygon></g></g><g transform="translate(29.166666666666693 30.4166666666667)"><g clip-path="url(#i3)"><polygon points="3.71924713e-15,-8.17170405e-15 10.4166667,-8.17170405e-15 10.4166667,25 3.71924713e-15,25 3.71924713e-15,-8.17170405e-15" stroke="none" fill="#FFE1D8"></polygon></g></g><g transform="translate(29.166666666666536 52.500000000000014)"><g clip-path="url(#i4)"><polygon points="-2.7339242e-15,-3.61493243e-14 10.4166667,-3.61493243e-14 10.4166667,13.3333333 -2.7339242e-15,13.3333333 -2.7339242e-15,-3.61493243e-14" stroke="none" fill="#FFE1D8"></polygon></g></g><g transform="translate(44.166666666666686 63.333333333333414)"><g clip-path="url(#i5)"><polygon points="5.44009282e-15,1.37713914e-14 15.8333333,1.37713914e-14 15.8333333,23.3333333 5.44009282e-15,23.3333333 5.44009282e-15,1.37713914e-14" stroke="none" fill="#FFE1D8"></polygon></g></g><g transform="translate(23.333333333333172 79.16666666666674)"><g clip-path="url(#i6)"><polygon points="-2.34479103e-13,-3.2909674e-14 21.6666667,-3.2909674e-14 21.6666667,12.0833333 -2.34479103e-13,12.0833333 -2.34479103e-13,-3.2909674e-14" stroke="none" fill="#FFE1D8"></polygon></g></g><g transform="translate(41.66666666666665 50.83333333333336)"><g clip-path="url(#i7)"><polygon points="-2.21961338e-13,6.52718268e-15 15.8334603,6.52718268e-15 15.8334603,20.8333333 -2.21961338e-13,20.8333333 -2.21961338e-13,6.52718268e-15" stroke="none" fill="#FFE1D8"></polygon></g></g><g transform="translate(19.9999999999999 60.41666666666663)"><g clip-path="url(#i8)"><polygon points="-1.97215226e-31,-7.60271475e-15 17.9166667,-7.60271475e-15 17.9166667,15.8333333 -1.97215226e-31,15.8333333 -1.97215226e-31,-7.60271475e-15" stroke="none" fill="#FFE1D8"></polygon></g></g><g transform="translate(40.41666666666672 39.166666666666686)"><g clip-path="url(#i9)"><polygon points="2.27817765e-13,2.5494725e-14 16.6666667,2.5494725e-14 16.6666667,19.5833333 2.27817765e-13,19.5833333 2.27817765e-13,2.5494725e-14" stroke="none" fill="#FFE1D8"></polygon></g></g><g transform="translate(41.250000000000085 26.250000000000085)"><g clip-path="url(#i10)"><polygon points="-1.44328993e-15,-3.46944695e-16 12.5,-3.46944695e-16 12.5,18.75 -1.44328993e-15,18.75 -1.44328993e-15,-3.46944695e-16" stroke="none" fill="#FFE1D8"></polygon></g></g><g transform="translate(28.3333333333332 27.083333333333428)"><g clip-path="url(#i11)"><polygon points="-2.88657986e-15,2.81557185e-14 9.58333333,2.81557185e-14 9.58333333,22.5 -2.88657986e-15,22.5 -2.88657986e-15,2.81557185e-14" stroke="none" fill="#FFE1D8"></polygon></g></g><g transform="translate(40.83333333333339 13.75000000000005)"><g clip-path="url(#i12)"><polygon points="-2.26414373e-13,-5.70747153e-14 8.33333333,-5.70747153e-14 8.33333333,23.75 -2.26414373e-13,23.75 -2.26414373e-13,-5.70747153e-14" stroke="none" fill="#FFE1D8"></polygon></g></g><g transform="translate(7.500000000000119 40.416666666666714)"><g clip-path="url(#i13)"><polygon points="1.41748444e-31,3.30083183e-14 18.75,3.30083183e-14 18.75,11.25 1.41748444e-31,11.25 1.41748444e-31,3.30083183e-14" stroke="none" fill="#FFE1D8"></polygon></g></g><g transform="translate(24.999999999999858 12.916666666666707)"><g clip-path="url(#i14)"><polygon points="5.19376209e-15,-2.86761355e-14 9.16666667,-2.86761355e-14 9.16666667,20.4166667 5.19376209e-15,20.4166667 5.19376209e-15,-2.86761355e-14" stroke="none" fill="#FFE1D8"></polygon></g></g><g transform="translate(-8.704148513061227e-14 25.833333333333393)"><g clip-path="url(#i15)"><polygon points="-7.39557099e-32,-3.26590606e-15 21.6666667,-3.26590606e-15 21.6666667,12.9166667 -7.39557099e-32,12.9166667 -7.39557099e-32,-3.26590606e-15" stroke="none" fill="#FFE1D8"></polygon></g></g><g transform="translate(2.0833333333332433 17.499999999999993)"><g clip-path="url(#i16)"><polygon points="-2.27373675e-13,4.38769391e-15 17.9166667,4.38769391e-15 17.9166667,10 -2.27373675e-13,10 -2.27373675e-13,4.38769391e-15" stroke="none" fill="#FFE1D8"></polygon></g></g><g transform="translate(18.750000000000103 7.105427357601002e-14)"><g clip-path="url(#i17)"><polygon points="5.16253706e-15,-1.85037171e-16 6.66666667,-1.85037171e-16 6.66666667,25.4166667 5.16253706e-15,25.4166667 5.16253706e-15,-1.85037171e-16" stroke="none" fill="#FFE1D8"></polygon></g></g><g transform="translate(26.666666666666494 48.33333333333336)"><g clip-path="url(#i18)"><polygon points="-2.27373675e-13,-1.45693642e-14 12.9166667,-1.45693642e-14 12.9166667,17.0833333 -2.27373675e-13,17.0833333 -2.27373675e-13,-1.45693642e-14" stroke="none" fill="#FFE1D8"></polygon></g></g></g></g></g></g></g></svg>